<?xml version="1.0" encoding="UTF-8"?>
<svg width="37px" height="37px" viewBox="0 0 37 37" version="1.1" xmlns="http://www.w3.org/2000/svg" xmlns:xlink="http://www.w3.org/1999/xlink">
    <!-- Generator: Sketch 53.2 (72643) - https://sketchapp.com -->
    <title>close icon</title>
    <desc>Created with Sketch.</desc>
    <g id="Web" stroke="none" stroke-width="1" fill="none" fill-rule="evenodd">
        <g id="-L2O-w2s4--summary-1" transform="translate(-933.000000, -204.000000)" fill-rule="nonzero">
            <g id="Group-39-Copy-2" transform="translate(471.000000, 205.000000)">
                <g id="close-icon" transform="translate(463.000000, 0.000000)">
                    <circle id="Oval-2-Copy-4" stroke="#FFFFFF" stroke-width="1.5" fill="#103F86" cx="17.5" cy="17.5" r="17.5"></circle>
                    <g id="handshake-(1)" transform="translate(6.000000, 9.000000)">
                        <path d="M22.4862755,5.1773434 L17.8158,0.506867925 C17.5200981,0.211166038 17.1270151,0.0483433962 16.7088491,0.0483433962 C16.290683,0.0483433962 15.8976,0.211166038 15.6019849,0.506867925 L14.5044075,1.60435849 C14.3355094,1.7732566 14.2151283,1.97192453 14.1396189,2.18326415 L9.00428302,1.2638717 C9.00393585,1.26378491 9.00350189,1.26378491 9.00315472,1.26369811 C6.6941283,0.80534717 4.43969434,2.30650943 3.97405283,4.61579623 L3.73719623,5.79070566 C3.47560377,7.08816604 4.31844528,8.35646415 5.61590566,8.6180566 C6.91345283,8.87947547 8.18175094,8.03680755 8.4433434,6.73934717 L8.58811321,6.02087925 L10.8909774,6.22223774 L16.9048264,12.2360868 L17.994766,13.3260264 C18.2154792,13.5467396 18.2153925,13.9058868 17.994766,14.1266 C17.7741396,14.3472264 17.4149925,14.3473132 17.1942792,14.1266 L14.2746679,11.2069887 C14.0713132,11.003634 13.7415019,11.003634 13.538234,11.2069887 C13.3348792,11.4103434 13.3348792,11.7400679 13.538234,11.9434226 L16.4578453,14.863034 C16.5647736,14.9699623 16.6236189,15.1121283 16.6236189,15.2633208 C16.6236189,15.4145132 16.5647736,15.5565925 16.4578453,15.6635208 C16.2370453,15.884234 15.8779849,15.8841472 15.6573585,15.6635208 L12.7377472,12.7439094 C12.5343925,12.5405547 12.2045811,12.5405547 12.0013132,12.7439094 C11.7979585,12.9472642 11.7979585,13.2769887 12.0013132,13.4803434 L14.9209245,16.3999547 C15.1416377,16.6205811 15.1416377,16.9797283 14.9209245,17.2004415 C14.8139962,17.3073698 14.6718302,17.3662151 14.5207245,17.3662151 C14.3695321,17.3662151 14.227366,17.3073698 14.1204377,17.2004415 L11.2008264,14.2808302 C10.9974717,14.0774755 10.6676604,14.0774755 10.4643925,14.2808302 C10.2610377,14.4841849 10.2610377,14.8139094 10.4643925,15.0172642 L13.3840038,17.9368755 C13.604717,18.1575887 13.6046302,18.5167358 13.3840038,18.7374491 C13.1633774,18.9580755 12.8042302,18.9581623 12.583517,18.7374491 L2.25321887,8.40732453 L0.889015094,7.04312075 C0.685660377,6.83976604 0.355849057,6.83976604 0.152581132,7.04312075 C-0.0507735849,7.24647547 -0.0507735849,7.5762 0.152581132,7.77955472 L1.51678491,9.14375849 L3.00136981,10.6283434 L2.18300377,11.4467094 C1.91507547,11.7146377 1.76744151,12.0709208 1.76744151,12.4499434 C1.76744151,12.828966 1.91498868,13.1852491 2.18300377,13.4531774 L2.45006415,13.7202377 C2.68431698,13.9544906 2.98609434,14.0966566 3.31147925,14.1287698 C3.34359245,14.4541547 3.48575849,14.7559321 3.72001132,14.9900981 L3.9870717,15.2572453 C4.22757358,15.4977472 4.53369057,15.6334038 4.84831321,15.6647358 C4.88016604,15.9904679 5.02250566,16.2926792 5.25701887,16.5271057 L5.52407925,16.794166 C5.75833208,17.0284189 6.06010943,17.1705849 6.38549434,17.2026981 C6.41760755,17.528083 6.55977358,17.8298604 6.79402642,18.0641132 L7.06108679,18.3311736 C7.33769434,18.6077811 7.70100755,18.7460415 8.06432075,18.7460415 C8.42763396,18.7460415 8.79094717,18.6077811 9.06755472,18.3311736 L9.88592075,17.5128075 L11.8469962,19.473883 C12.150683,19.7775698 12.5543547,19.9447321 12.983717,19.9447321 C13.4130792,19.9447321 13.8168377,19.777483 14.1204377,19.473883 C14.4080679,19.1862528 14.5714113,18.8084453 14.5879887,18.4045132 C14.9920075,18.3879358 15.3697283,18.2245925 15.6574453,17.9369623 C15.9539283,17.6404792 16.1083321,17.2560755 16.1243887,16.8668981 C16.5134792,16.8508415 16.8979698,16.6964377 17.194366,16.4000415 C17.4908491,16.1035585 17.6452528,15.7191547 17.6613094,15.3299774 C18.0504868,15.3139208 18.4349774,15.159517 18.7313736,14.863034 C19.3581887,14.2362189 19.3581887,13.2164075 18.7313736,12.5895925 L18.0096943,11.8679132 L20.6501811,9.22742642 L22.4863623,7.39124528 C23.0966,6.78083396 23.0966,5.78766792 22.4862755,5.1773434 L22.4862755,5.1773434 Z M2.91943774,12.7166566 C2.77232453,12.5695434 2.77232453,12.3302566 2.91943774,12.1831434 L3.6868566,11.4157245 L4.48743019,12.2162981 L3.72001132,12.983717 C3.57298491,13.1308302 3.33352453,13.1307434 3.18649811,12.983717 L2.91943774,12.7166566 L2.91943774,12.7166566 Z M4.45644528,14.2536642 C4.30933208,14.1065509 4.30933208,13.8672642 4.45644528,13.7202377 L5.22386415,12.9528189 L6.02443774,13.7533925 L5.25710566,14.5208113 C5.10999245,14.6678377 4.87053208,14.6679245 4.72359245,14.5208113 L4.45644528,14.2536642 Z M5.99336604,15.7906717 C5.92210943,15.7194151 5.88287925,15.6246377 5.88287925,15.5239585 C5.88287925,15.4232792 5.92210943,15.3285019 5.99336604,15.2572453 L6.76078491,14.4898264 L7.5612717,15.2903132 L6.79385283,16.0577321 C6.64682642,16.2047585 6.40745283,16.2047585 6.26042642,16.0577321 L5.99336604,15.7906717 Z M8.33094717,17.5947396 C8.18392075,17.7418528 7.94446038,17.741766 7.79743396,17.5947396 L7.53037358,17.3276792 C7.38326038,17.180566 7.38326038,16.9412792 7.53037358,16.794166 L8.29779245,16.0267472 L9.09836604,16.8273208 L8.33094717,17.5947396 Z M17.2730868,11.1313925 L11.4934038,5.35170943 C11.4067849,5.26509057 11.292566,5.2118 11.1705358,5.20121132 L8.21499245,4.94283019 C8.19963019,4.94144151 8.18435472,4.94083396 8.16925283,4.94083396 C7.92371698,4.94083396 7.70855849,5.11398491 7.65917358,5.35873962 L7.42231698,6.53364906 C7.27424906,7.26808679 6.55664906,7.74509811 5.82169057,7.59711698 C5.4659283,7.52542642 5.15929057,7.31938113 4.95845283,7.01708302 C4.75761509,6.71478491 4.68644528,6.35233962 4.75822264,5.99649057 L4.99507925,4.82166792 C5.34797736,3.07115094 7.05848302,1.93364906 8.80969434,2.28698113 C8.81333962,2.28767547 8.8170717,2.2884566 8.82080377,2.28906415 L13.8813245,3.19509057 L14.5044075,3.81817358 L19.5454,8.85916604 L17.2730868,11.1313925 L17.2730868,11.1313925 Z M21.7497547,6.65472453 L20.2817472,8.12273208 L15.2407547,3.08173962 C15.1418113,2.98279623 15.0873057,2.85121887 15.0873057,2.71122264 C15.0873057,2.57122642 15.1418113,2.43973585 15.2407547,2.34070566 L16.3383321,1.2431283 C16.4372755,1.14418491 16.5688528,1.08967925 16.7087623,1.08967925 C16.8486717,1.08967925 16.9802491,1.14418491 17.0792792,1.2431283 L21.7497547,5.91360377 C21.8486981,6.01254717 21.9032038,6.14412453 21.9032038,6.28412075 C21.9032038,6.42411698 21.8486981,6.55578113 21.7497547,6.65472453 Z" id="Shape" fill="#FFFFFF"></path>
                        <circle id="Oval" fill="#103F86" cx="20.4891811" cy="6.49094717" r="1"></circle>
                    </g>
                </g>
            </g>
        </g>
    </g>
</svg>