<?xml version="1.0" encoding="UTF-8"?>
<svg width="14px" height="14px" viewBox="0 0 14 14" version="1.1" xmlns="http://www.w3.org/2000/svg" xmlns:xlink="http://www.w3.org/1999/xlink">
    <!-- Generator: Sketch 53.2 (72643) - https://sketchapp.com -->
    <title>Group 17</title>
    <desc>Created with Sketch.</desc>
    <defs>
        <polygon id="path-1" points="0.053334361 0.042781353 2.63479 0.042781353 2.63479 2.62967565 0.053334361 2.62967565"></polygon>
        <polygon id="path-3" points="2.59156273e-05 0.042781353 2.61180284 0.042781353 2.61180284 2.6296671 2.59156273e-05 2.6296671"></polygon>
        <polygon id="path-5" points="1.72770849e-05 0.0427642405 9.71836025 0.0427642405 9.71836025 9.66856868 1.72770849e-05 9.66856868"></polygon>
    </defs>
    <g id="Page-1" stroke="none" stroke-width="1" fill="none" fill-rule="evenodd">
        <g id="deal-list1-copy" transform="translate(-1240.000000, -123.000000)">
            <g id="Group" transform="translate(1240.000000, 119.000000)">
                <g id="Group-9">
                    <g id="Group-11">
                        <g id="Group-17" transform="translate(0.000000, 4.000000)">
                            <polygon id="Fill-1" fill="#fff" points="4 1 6 1 6 0 4 0"></polygon>
                            <polygon id="Fill-2" fill="#fff" points="0 6 1 6 1 4 0 4"></polygon>
                            <g id="Group-16">
                                <g id="Group-5" transform="translate(7.083605, 0.000000)">
                                    <mask id="mask-2" fill="white">
                                        <use xlink:href="#path-1"></use>
                                    </mask>
                                    <g id="Clip-4"></g>
                                    <path d="M1.35922282,2.62967565 L2.63479,2.62967565 L2.63479,1.33622422 C2.63479,0.975235168 2.51324571,0.674396693 2.27032989,0.433794364 C2.02732769,0.193106471 1.72368293,0.0629655954 1.35922282,0.0427727968 L0.053334361,0.0427727968 L0.053334361,1.33622422 L1.35922282,1.33622422 L1.35922282,2.62967565 Z" id="Fill-3" fill="#fff" mask="url(#mask-2)"></path>
                                </g>
                                <g id="Group-8">
                                    <mask id="mask-4" fill="white">
                                        <use xlink:href="#path-3"></use>
                                    </mask>
                                    <g id="Clip-7"></g>
                                    <path d="M0.394807305,0.433785807 C0.151805106,0.6744737 0.0198945632,0.975226612 2.59156273e-05,1.33621567 L2.59156273e-05,2.6296671 L1.30591438,2.6296671 L1.30591438,1.33621567 L2.61180284,1.33621567 L2.61180284,0.0427642405 L1.30591438,0.0427642405 C0.941454271,0.0629570391 0.637809504,0.193097915 0.394807305,0.433785807" id="Fill-6" fill="#fff" mask="url(#mask-4)"></path>
                                </g>
                                <path d="M1.30590574,7.11168977 L1.72770849e-05,7.11168977 L1.72770849e-05,8.4051412 C0.0198859247,8.76613026 0.151882853,9.06696873 0.394798667,9.30757106 C0.637800866,9.54825896 0.941445632,9.66856012 1.30590574,9.66856012 L2.6117942,9.66856012 L2.6117942,8.4051412 L1.30590574,8.4051412 L1.30590574,7.11168977 Z" id="Fill-9" fill="#fff"></path>
                                <g id="Group-13" transform="translate(3.887344, 3.850322)">
                                    <mask id="mask-6" fill="white">
                                        <use xlink:href="#path-5"></use>
                                    </mask>
                                    <g id="Clip-12"></g>
                                    <path d="M9.35391742,0.433785807 C9.11091522,0.193097915 8.80727045,0.0629570391 8.44281035,0.0427642405 L4.55546625,0.0427642405 L4.55546625,1.34982014 L5.83103343,1.33621567 L8.44281035,1.33621567 L8.44281035,8.40514976 L1.30590574,8.40514976 L1.30590574,5.8182469 L1.30236394,4.55482798 L1.72770849e-05,4.55482798 L1.72770849e-05,8.40514976 C0.0198859247,8.76613882 0.151882853,9.06689173 0.394798667,9.30757962 C0.637800866,9.54818195 0.941445632,9.66856868 1.30590574,9.66856868 L8.44281035,9.66856868 C8.80727045,9.66856868 9.11091522,9.54818195 9.35391742,9.30757962 C9.59691962,9.06689173 9.71837752,8.76613882 9.71837752,8.40514976 L9.71837752,1.33621567 C9.71837752,0.975226612 9.59691962,0.6744737 9.35391742,0.433785807" id="Fill-11" fill="#fff" mask="url(#mask-6)"></path>
                                </g>
                                <polygon id="Fill-14" fill="#fff" points="9.74266047 6.329929 9.74266047 8.25508988 11.6863325 8.25508988 11.6863325 9.5185088 9.74266047 9.5185088 9.74266047 11.4436697 8.43677201 11.4436697 8.43677201 9.5185088 6.49309996 9.5185088 6.49309996 8.25508988 8.43677201 8.25508988 8.43677201 6.329929"></polygon>
                            </g>
                        </g>
                    </g>
                </g>
            </g>
        </g>
    </g>
</svg>