<?xml version="1.0" encoding="UTF-8"?>
<svg width="37px" height="37px" viewBox="0 0 37 37" version="1.1" xmlns="http://www.w3.org/2000/svg" xmlns:xlink="http://www.w3.org/1999/xlink">
    <!-- Generator: Sketch 53.2 (72643) - https://sketchapp.com -->
    <title>create state2</title>
    <desc>Created with Sketch.</desc>
    <g id="Web" stroke="none" stroke-width="1" fill="none" fill-rule="evenodd">
        <g id="-L2O-w2s4--summary-1-Copy" transform="translate(-35.000000, -354.000000)" fill-rule="nonzero">
            <g id="create-state2" transform="translate(36.000000, 355.000000)">
                <g id="Group-40-Copy" fill="#FFFFFF" stroke="#FFFFFF" stroke-width="1.5">
                    <g id="Group-16-Copy">
                        <circle id="Oval-2-Copy-4" cx="17.5" cy="17.5" r="17.5"></circle>
                    </g>
                </g>
                <g id="drawing" transform="translate(8.000000, 8.000000)" fill="#2F81FF">
                    <path d="M4.3951416,3.72314453 C4.21447754,3.72314453 4.04464723,3.79348754 3.91662598,3.92135621 C3.6529541,4.18518066 3.65310668,4.61441039 3.91677855,4.87808227 C4.04464723,5.00595094 4.21447754,5.07629395 4.3951416,5.07629395 C4.57580566,5.07629395 4.74578859,5.00595094 4.87365723,4.87808227 C5.1373291,4.61441039 5.1373291,4.18518066 4.87350465,3.92120359 C4.74563598,3.79348754 4.57580566,3.72314453 4.3951416,3.72314453 Z" id="Path"></path>
                    <path d="M17.3799133,6.74957273 L19.9978637,0 L13.248291,2.61795043 L10.1617432,5.70449828 L4.46166992,0.00457765625 L-5.68434189e-14,4.46624758 L5.70007324,10.1663208 L1.4855957,14.3807984 L0.537109375,15.3291321 C0.195007344,15.6713867 0.00640867187,16.1264038 0.00640867187,16.6104126 C0.00640867187,17.0944214 0.195007344,17.5492859 0.537109375,17.8916931 L2.10617066,19.4607544 C2.45941164,19.8139954 2.92343141,19.9905395 3.38745117,19.9905395 C3.85147094,19.9905395 4.3154907,19.8139954 4.66873168,19.4607544 L9.83169555,14.2977905 L15.5337524,20 L19.9954223,15.5383301 L14.2933655,9.83612062 L17.3799133,6.74957273 Z M4.79385375,16.0324097 L15.2268982,5.59936523 L16.0501098,6.42257691 L5.61706543,16.8556213 L4.79385375,16.0324097 Z M16.6572571,5.37307738 L14.6247864,3.34060668 L17.9452515,2.05276488 L16.6572571,5.37307738 Z M5.70785523,8.51745605 L6.79382324,7.43148805 L5.96542359,6.60308836 L4.87945555,7.68905641 L1.6567993,4.46624758 L4.46166992,1.66122437 L9.33334352,6.53289797 L6.52847289,9.33792113 L5.70785523,8.51745605 Z M13.5752869,3.94775391 L14.3984985,4.77096559 L3.96560668,15.20401 L3.14224242,14.3807984 L13.5752869,3.94775391 Z M3.84048461,18.6323547 C3.71948242,18.753357 3.55865477,18.8198852 3.38745117,18.8198852 C3.21640016,18.8198852 3.0555725,18.753357 2.93457031,18.6323547 L1.36550902,17.0632934 C1.24465941,16.9422913 1.17797852,16.7814636 1.17797852,16.6104126 C1.17797852,16.4393616 1.24465941,16.2783813 1.36550902,16.1575317 L2.31399535,15.2090454 L4.78881836,17.684021 L3.84048461,18.6323547 Z M18.3387756,15.5383301 L15.5337524,18.3433533 L13.9659119,16.7755127 L15.0518799,15.6895447 L14.2234802,14.861145 L13.1376648,15.947113 L12.3143005,15.1239014 L13.4002686,14.0379334 L12.5718689,13.2095337 L11.4859009,14.2955017 L10.6599426,13.4695434 L13.4649658,10.6645203 L18.3387756,15.5383301 Z" id="Shape"></path>
                </g>
            </g>
        </g>
    </g>
</svg>