<svg xmlns="http://www.w3.org/2000/svg" width="40" height="40" viewBox="0 0 40 40">
    <g fill="none" fill-rule="evenodd">
        <circle cx="20" cy="20" r="20" fill="#2F81FF" fill-rule="nonzero"/>
        <path fill="#FFF" fill-rule="nonzero" d="M26.045 12.09a3.18 3.18 0 1 1 5.618 2.983l-5.34 10.06a3.18 3.18 0 1 1-5.618-2.983l5.34-10.06z"/>
        <path fill="#CCE1FF" fill-rule="nonzero" d="M23.473 16.832l2.853 5.51c.359.692.438 1.455.28 2.16l-.422.794a3.181 3.181 0 0 1-2.747 1.69 3.181 3.181 0 0 1-2.762-1.719l-.413-.798a3.167 3.167 0 0 1 .301-2.156l2.91-5.48z"/>
        <g fill="#FFF" fill-rule="nonzero">
            <path d="M8.363 20.763a3.176 3.176 0 0 1 1.362-4.283 3.183 3.183 0 0 1 4.289 1.36l3.694 7.127a3.176 3.176 0 0 1-1.362 4.283 3.183 3.183 0 0 1-4.288-1.361l-3.695-7.126z"/>
            <path d="M17.474 14.701a3.183 3.183 0 0 1 4.301-1.317 3.176 3.176 0 0 1 1.319 4.297l-5.341 10.05a3.183 3.183 0 0 1-4.302 1.316 3.176 3.176 0 0 1-1.319-4.296l5.342-10.05z"/>
        </g>
        <path fill="#FFF" fill-rule="nonzero" d="M8.357 20.76a3.182 3.182 0 0 1 5.65-2.926l3.695 7.135a3.182 3.182 0 0 1-5.65 2.926L8.356 20.76z"/>
        <path fill="#FFF" fill-rule="nonzero" d="M8.357 20.76a3.182 3.182 0 0 1 5.65-2.926l3.695 7.135a3.182 3.182 0 0 1-5.65 2.926L8.356 20.76z"/>
        <path fill="#FFF" fill-rule="nonzero" d="M17.485 14.699a3.176 3.176 0 0 1 4.298-1.32 3.187 3.187 0 0 1 1.317 4.306l-5.336 10.07a3.176 3.176 0 0 1-4.299 1.32 3.187 3.187 0 0 1-1.317-4.305l5.337-10.071z"/>
        <path fill="#FFF" fill-rule="nonzero" d="M17.485 14.699a3.176 3.176 0 0 1 4.298-1.32 3.187 3.187 0 0 1 1.317 4.306l-5.336 10.07a3.176 3.176 0 0 1-4.299 1.32 3.187 3.187 0 0 1-1.317-4.305l5.337-10.071z"/>
        <path fill="#CCE1FF" fill-rule="nonzero" d="M14.92 19.623l2.849 5.512c.358.693.437 1.457.278 2.163l-.42.793a3.176 3.176 0 0 1-2.744 1.69 3.176 3.176 0 0 1-2.757-1.719l-.413-.798a3.175 3.175 0 0 1 .3-2.157l2.907-5.484z"/>
    </g>
</svg>
