<?xml version="1.0" encoding="UTF-8"?>
<svg width="542px" height="355px" viewBox="0 0 542 355" version="1.1" xmlns="http://www.w3.org/2000/svg" xmlns:xlink="http://www.w3.org/1999/xlink">
    <!-- Generator: sketchtool 52.3 (67297) - http://www.bohemiancoding.com/sketch -->
    <title>29A8EE77-5660-43F1-9114-187F547441AB</title>
    <desc>Created with sketchtool.</desc>
    <g id="Dashboards" stroke="none" stroke-width="1" fill="none" fill-rule="evenodd">
        <g id="00_Main-Dashboard_Default" transform="translate(-898.000000, -125.000000)" fill="#0E3570">
            <g id="Wipro-bg" transform="translate(0.000000, 80.000000)">
                <path d="M1056.40977,404.829 C1053.14477,406.707 1052.02777,410.874 1053.91577,414.137 C1055.79277,417.4 1059.96577,418.519 1063.22777,416.632 C1066.48877,414.752 1067.60477,410.587 1065.72277,407.321 C1063.84077,404.058 1059.66877,402.939 1056.40977,404.829 M1003.15877,433.997 C999.242769,436.254 997.903769,441.264 1000.16177,445.175 C1002.42477,449.083 1007.42877,450.428 1011.34477,448.171 C1015.25277,445.912 1016.59777,440.905 1014.33577,436.994 C1012.07677,433.072 1007.06977,431.738 1003.15877,433.997 M932.411769,466.964 C925.237769,471.11 922.780769,480.285 926.922769,487.459 C931.061769,494.633 940.237769,497.087 947.412769,492.95 C954.591769,488.804 957.050769,479.629 952.903769,472.455 C948.762769,465.281 939.586769,462.816 932.411769,466.964 M1117.92977,403.277 C1116.32677,401.686 1113.73677,401.686 1112.13877,403.277 C1110.54277,404.881 1110.54277,407.465 1112.13877,409.065 C1113.73677,410.669 1116.32677,410.669 1117.92977,409.065 C1119.52477,407.475 1119.52477,404.881 1117.92977,403.277 M1076.44977,434.15 C1073.52477,437.076 1073.52477,441.827 1076.44977,444.752 C1079.38477,447.687 1084.13677,447.687 1087.06077,444.763 C1089.99077,441.827 1089.99077,437.076 1087.06077,434.15 C1084.13077,431.216 1079.38477,431.216 1076.44977,434.15 M1032.08577,475.626 C1028.35577,479.35 1028.35577,485.397 1032.08577,489.121 C1035.81677,492.858 1041.85977,492.858 1045.58677,489.131 C1049.31777,485.397 1049.31777,479.35 1045.58677,475.626 C1041.85977,471.899 1035.81177,471.899 1032.08577,475.626 M972.280769,525.783 C965.891769,532.176 965.886769,542.545 972.280769,548.927 C978.675769,555.32 989.040769,555.32 995.430769,548.927 C1001.82377,542.534 1001.82377,532.166 995.430769,525.783 C989.040769,519.388 978.675769,519.388 972.280769,525.783 M1136.29977,416.632 C1134.01677,415.308 1131.09777,416.097 1129.78277,418.376 C1128.45977,420.666 1129.24277,423.581 1131.52677,424.904 C1133.81177,426.216 1136.73177,425.437 1138.05177,423.147 C1139.36177,420.871 1138.58377,417.945 1136.29977,416.632 M1106.28877,468.605 C1110.20477,470.864 1115.20977,469.53 1117.47177,465.608 C1119.72977,461.697 1118.38977,456.69 1114.47377,454.432 C1110.55777,452.175 1105.55577,453.517 1103.29677,457.428 C1101.03577,461.339 1102.38077,466.346 1106.28877,468.605 M1085.49077,504.64 C1080.27077,501.623 1073.59677,503.418 1070.58177,508.633 C1067.56977,513.848 1069.36277,520.527 1074.57477,523.534 C1079.80077,526.552 1086.47177,524.766 1089.48377,519.544 C1092.49677,514.329 1090.70577,507.646 1085.49077,504.64 M1050.01977,566.067 C1041.54177,561.173 1030.69977,564.077 1025.80077,572.565 C1020.90777,581.04 1023.81277,591.88 1032.29077,596.784 C1040.77377,601.672 1051.61577,598.767 1056.51277,590.289 C1061.40777,581.811 1058.50277,570.962 1050.01977,566.067 M1161.19477,431.38 C1161.97277,428.475 1160.24977,425.478 1157.34077,424.697 C1154.42577,423.919 1151.43877,425.652 1150.65277,428.557 C1149.87977,431.461 1151.60277,434.458 1154.51277,435.239 C1157.42777,436.018 1160.41377,434.294 1161.19477,431.38 M1146.03977,466.861 C1141.31377,465.599 1136.44777,468.4 1135.18177,473.131 C1133.91977,477.862 1136.72277,482.718 1141.45277,483.991 C1146.17877,485.254 1151.03977,482.452 1152.30877,477.719 C1153.57277,472.987 1150.76977,468.134 1146.03977,466.861 M1131.20977,522.2 C1124.66077,520.445 1117.93477,524.336 1116.17777,530.883 C1114.42377,537.432 1118.31377,544.155 1124.85477,545.91 C1131.40477,547.664 1138.13377,543.784 1139.89277,537.237 C1141.64677,530.688 1137.75677,523.957 1131.20977,522.2 M1112.85277,590.72 C1102.66677,587.989 1092.19877,594.036 1089.46877,604.218 C1086.73877,614.409 1092.78277,624.877 1102.96977,627.607 C1113.15577,630.338 1123.62377,624.293 1126.35377,614.101 C1129.08477,603.918 1123.03977,593.45 1112.85277,590.72 M1179.57177,427.028 C1176.17877,427.028 1173.43177,429.768 1173.43177,433.165 C1173.43177,436.554 1176.17877,439.305 1179.57177,439.305 C1182.95777,439.305 1185.70877,436.554 1185.71477,433.165 C1185.71477,429.768 1182.95777,427.028 1179.57177,427.028 M1179.57177,489.769 C1184.84577,489.769 1189.11477,485.5 1189.11477,480.223 C1189.11477,474.947 1184.84577,470.678 1179.57177,470.678 C1174.29577,470.678 1170.02077,474.947 1170.02077,480.223 C1170.02077,485.5 1174.29577,489.769 1179.57177,489.769 M1165.93077,540.921 C1165.93077,548.456 1172.03677,554.561 1179.57177,554.561 C1187.10477,554.561 1193.21077,548.456 1193.21077,540.921 C1193.21077,533.388 1187.10477,527.281 1179.57177,527.281 C1172.03677,527.281 1165.93077,533.388 1165.93077,540.921 M1179.57177,598.211 C1168.27177,598.211 1159.10977,607.378 1159.10977,618.679 C1159.10977,629.978 1168.27177,639.143 1179.57177,639.133 C1190.86977,639.133 1200.03177,629.978 1200.03177,618.679 C1200.03177,607.378 1190.86977,598.211 1179.57177,598.211 M1209.82277,428.362 C1208.84677,424.728 1205.10477,422.563 1201.47277,423.539 C1197.83377,424.513 1195.67477,428.26 1196.64777,431.891 C1197.62377,435.526 1201.36077,437.69 1204.99777,436.718 C1208.63777,435.741 1210.79677,431.994 1209.82277,428.362 M1225.29377,472.936 C1223.83077,467.475 1218.22677,464.243 1212.76877,465.701 C1207.31277,467.168 1204.07577,472.772 1205.53877,478.233 C1207.00077,483.683 1212.60977,486.926 1218.05777,485.458 C1223.51777,484.001 1226.75577,478.397 1225.29377,472.936 M1235.00877,548.701 C1243.01477,546.556 1247.76177,538.336 1245.61677,530.34 C1243.47077,522.333 1235.24377,517.582 1227.24477,519.728 C1219.23877,521.872 1214.49277,530.094 1216.63677,538.098 C1218.78277,546.104 1227.00977,550.846 1235.00877,548.701 M1245.60177,588.245 C1233.96077,591.367 1227.05577,603.323 1230.17077,614.962 C1233.29477,626.61 1245.25677,633.518 1256.89377,630.398 C1268.54077,627.279 1275.44577,615.31 1272.32677,603.672 C1269.21177,592.033 1257.24577,585.126 1245.60177,588.245 M1221.55877,414.577 C1217.97077,416.642 1216.74377,421.229 1218.81277,424.82 C1220.88577,428.403 1225.47477,429.636 1229.06077,427.571 C1232.64877,425.499 1233.87877,420.912 1231.80677,417.318 C1229.73477,413.737 1225.14477,412.506 1221.55877,414.577 M1254.29477,471.274 C1259.51277,468.267 1261.30577,461.585 1258.28577,456.37 C1255.27277,451.147 1248.60377,449.362 1243.38377,452.38 C1238.16377,455.387 1236.37877,462.056 1239.39077,467.281 C1242.40277,472.506 1249.07477,474.291 1254.29477,471.274 M1293.36777,506.21 C1288.84677,498.38 1278.83477,495.701 1271.00777,500.217 C1263.18177,504.742 1260.49877,514.749 1265.01377,522.582 C1269.53977,530.401 1279.54677,533.091 1287.37377,528.564 C1295.20377,524.049 1297.88277,514.043 1293.36777,506.21 M1306.47277,561.654 C1295.38277,568.047 1291.58777,582.231 1297.99077,593.327 C1304.39077,604.412 1318.56777,608.208 1329.65777,601.805 C1340.75077,595.409 1344.54977,581.227 1338.14277,570.142 C1331.74277,559.047 1317.56277,555.248 1306.47277,561.654 M1238.49977,412.392 C1241.69577,415.595 1246.87277,415.595 1250.07677,412.392 C1253.26777,409.201 1253.26777,404.017 1250.07677,400.815 C1246.87777,397.622 1241.69577,397.622 1238.49977,400.826 C1235.30077,404.017 1235.30077,409.201 1238.49977,412.392 M1286.24377,448.56 C1291.03677,443.768 1291.04177,435.997 1286.24377,431.205 C1281.45177,426.413 1273.68077,426.413 1268.88477,431.205 C1264.08977,435.997 1264.08977,443.768 1268.88477,448.571 C1273.67677,453.363 1281.45177,453.363 1286.24377,448.56 M1333.02577,495.352 C1339.94877,488.425 1339.94877,477.195 1333.02577,470.267 C1326.10277,463.339 1314.87477,463.339 1307.94577,470.267 C1301.02277,477.195 1301.02277,488.425 1307.94577,495.352 C1314.87477,502.268 1326.10277,502.268 1333.02577,495.352 M1358.10577,520.425 C1348.51877,530.012 1348.50977,545.561 1358.10577,555.146 C1367.69277,564.732 1383.24277,564.743 1392.82677,555.146 C1402.41377,545.561 1402.41377,530.012 1392.82677,520.425 C1383.24277,510.838 1367.69277,510.838 1358.10577,520.425 M1266.55377,392.164 C1269.00177,387.925 1267.54977,382.495 1263.30977,380.052 C1259.06577,377.6 1253.64177,379.058 1251.19277,383.294 C1248.74777,387.533 1250.20477,392.952 1254.44277,395.406 C1258.68177,397.85 1264.10377,396.402 1266.55377,392.164 M1311.44177,418.079 C1315.20777,411.551 1312.97577,403.216 1306.44777,399.451 C1299.92477,395.683 1291.58777,397.911 1287.81877,404.437 C1284.05177,410.966 1286.29077,419.31 1292.81377,423.065 C1299.33577,426.833 1307.67477,424.605 1311.44177,418.079 M1368.73777,451.158 C1374.00477,442.021 1370.87377,430.343 1361.75077,425.068 C1352.61477,419.803 1340.93477,422.933 1335.66177,432.056 C1330.39277,441.192 1333.52277,452.871 1342.64877,458.147 C1351.78477,463.421 1363.46477,460.291 1368.73777,451.158 M1433.17477,456.864 C1420.13077,449.332 1403.45077,453.807 1395.90577,466.85 C1388.38377,479.895 1392.84677,496.574 1405.89177,504.107 C1418.94177,511.64 1435.62877,507.176 1443.16077,494.121 C1450.69677,481.076 1446.22177,464.397 1433.17477,456.864 M1265.61077,374.941 C1270.69977,376.307 1275.93477,373.277 1277.30077,368.187 C1278.66577,363.096 1275.64277,357.852 1270.55177,356.498 C1265.45477,355.133 1260.22677,358.15 1258.85677,363.239 C1257.49677,368.341 1260.51777,373.576 1265.61077,374.941 M1309.65377,392.39 C1317.65577,394.533 1325.88277,389.781 1328.02577,381.775 C1330.17277,373.771 1325.41977,365.55 1317.42077,363.405 C1309.41377,361.26 1301.19177,366.011 1299.04877,374.007 C1296.90177,382.014 1301.65577,390.243 1309.65377,392.39 M1366.87077,413.366 C1377.79177,416.294 1389.00077,409.816 1391.92577,398.894 C1394.84977,387.986 1388.37277,376.767 1377.46477,373.843 C1366.55377,370.918 1355.33477,377.403 1352.40977,388.314 C1349.48477,399.225 1355.96277,410.441 1366.87077,413.366 M1455.03777,384.752 C1439.03777,380.464 1422.58377,389.956 1418.29377,405.967 C1414.00377,421.967 1423.50877,438.421 1439.50977,442.711 C1455.50977,447.001 1471.96077,437.496 1476.25077,421.495 C1480.54077,405.495 1471.04877,389.042 1455.03777,384.752 M1281.70077,342.067 C1281.70077,336.312 1277.03077,331.643 1271.27277,331.643 C1265.51377,331.643 1260.84477,336.312 1260.84477,342.067 C1260.84477,347.823 1265.51377,352.5 1271.27277,352.5 C1277.03077,352.5 1281.70077,347.823 1281.70077,342.067 M1318.33477,326.059 C1309.49277,326.059 1302.32177,333.231 1302.32177,342.067 C1302.32177,350.914 1309.49277,358.086 1318.33477,358.086 C1327.17677,358.086 1334.34777,350.914 1334.34777,342.067 C1334.34777,333.231 1327.17677,326.059 1318.33477,326.059 M1402.49577,342.067 C1402.49577,329.115 1391.99477,318.611 1379.03677,318.611 C1366.07977,318.611 1355.57577,329.115 1355.57577,342.067 C1355.57577,355.022 1366.07977,365.531 1379.03677,365.531 C1391.99477,365.531 1402.49577,355.022 1402.49577,342.067 M1456.79277,309.296 C1438.69177,309.296 1424.01477,323.97 1424.01477,342.067 C1424.01477,360.163 1438.69177,374.84 1456.79277,374.84 C1474.89277,374.84 1489.55877,360.163 1489.55877,342.067 C1489.55877,323.97 1474.89277,309.296 1456.79277,309.296 M916.025769,253.217 C908.390769,251.162 900.534769,255.699 898.491769,263.336 C896.443769,270.982 900.979769,278.825 908.616769,280.876 C916.252769,282.928 924.104769,278.391 926.155769,270.746 C928.198769,263.111 923.667769,255.258 916.025769,253.217 M1063.22777,267.504 C1059.96577,265.623 1055.79277,266.743 1053.91577,270.006 C1052.02777,273.262 1053.14477,277.439 1056.40977,279.316 C1059.66877,281.204 1063.84077,280.085 1065.72277,276.822 C1067.60477,273.558 1066.48877,269.391 1063.22777,267.504 M1011.34477,235.974 C1007.42877,233.715 1002.42477,235.06 1000.16177,238.971 C997.903769,242.882 999.242769,247.89 1003.15877,250.148 C1007.06977,252.405 1012.07677,251.071 1014.33577,247.152 C1016.59777,243.241 1015.25277,238.23 1011.34477,235.974 M931.862769,216.637 C939.042769,220.773 948.217769,218.319 952.358769,211.145 C956.500769,203.961 954.042769,194.786 946.867769,190.65 C939.693769,186.503 930.518769,188.967 926.372769,196.141 C922.230769,203.315 924.693769,212.49 931.862769,216.637 M1117.92977,275.067 C1116.32677,273.476 1113.73677,273.476 1112.13877,275.067 C1110.54277,276.668 1110.54277,279.265 1112.13877,280.855 C1113.73677,282.456 1116.32677,282.456 1117.92977,280.855 C1119.52477,279.265 1119.52477,276.668 1117.92977,275.067 M1087.06077,239.381 C1084.13677,236.456 1079.38477,236.456 1076.44977,239.381 C1073.52477,242.316 1073.52477,247.067 1076.44977,249.992 C1079.38477,252.93 1084.13077,252.919 1087.06077,249.992 C1089.99077,247.067 1089.99077,242.316 1087.06077,239.381 M1045.58677,195.012 C1041.85977,191.287 1035.81677,191.287 1032.08577,195.012 C1028.35577,198.748 1028.35577,204.793 1032.08577,208.52 C1035.81177,212.244 1041.85977,212.244 1045.58677,208.52 C1049.31777,204.793 1049.31777,198.748 1045.58677,195.012 M995.430769,158.362 C1001.82377,151.967 1001.82377,141.601 995.430769,135.216 C989.040769,128.823 978.675769,128.823 972.280769,135.216 C965.886769,141.601 965.891769,151.967 972.280769,158.362 C978.675769,164.755 989.040769,164.755 995.430769,158.362 M1138.05177,260.996 C1136.73177,258.708 1133.81177,257.927 1131.52677,259.241 C1129.24277,260.565 1128.45977,263.48 1129.78277,265.767 C1131.09777,268.046 1134.01677,268.828 1136.29977,267.514 C1138.58377,266.2 1139.36177,263.275 1138.05177,260.996 M1114.47377,229.712 C1118.38977,227.445 1119.72977,222.446 1117.47177,218.537 C1115.20977,214.616 1110.20477,213.281 1106.28877,215.537 C1102.38077,217.797 1101.03577,222.796 1103.29677,226.715 C1105.55577,230.626 1110.55777,231.971 1114.47377,229.712 M1085.49077,179.503 C1090.70577,176.486 1092.49677,169.816 1089.48377,164.601 C1086.47177,159.376 1079.80077,157.591 1074.57477,160.608 C1069.36277,163.616 1067.56977,170.287 1070.58177,175.513 C1073.59677,180.725 1080.27077,182.51 1085.49077,179.503 M1050.01977,118.076 C1058.50277,113.181 1061.40777,102.331 1056.51277,93.856 C1051.61577,85.368 1040.77377,82.474 1032.29077,87.358 C1023.81277,92.253 1020.90777,103.103 1025.80077,111.58 C1030.69977,120.069 1041.54177,122.973 1050.01977,118.076 M1150.65277,255.586 C1151.43877,258.491 1154.42577,260.227 1157.34077,259.446 C1160.24977,258.667 1161.97277,255.668 1161.19477,252.764 C1160.41377,249.849 1157.42777,248.125 1154.51277,248.906 C1151.60277,249.684 1149.87977,252.671 1150.65277,255.586 M1135.18177,211.012 C1136.44777,215.745 1141.31377,218.547 1146.03977,217.285 C1150.76977,216.012 1153.57277,211.155 1152.30877,206.425 C1151.03977,201.694 1146.17877,198.892 1141.45277,200.155 C1136.72277,201.428 1133.91977,206.281 1135.18177,211.012 M1116.17777,153.26 C1117.93477,159.809 1124.66077,163.697 1131.20977,161.943 C1137.75677,160.188 1141.64677,153.455 1139.89277,146.908 C1138.13377,140.359 1131.40477,136.478 1124.85477,138.225 C1118.31377,139.98 1114.42377,146.711 1116.17777,153.26 M1112.85277,93.423 C1123.03977,90.693 1129.08477,80.225 1126.35377,70.044 C1123.62377,59.853 1113.15577,53.808 1102.96977,56.538 C1092.78277,59.267 1086.73877,69.737 1089.46877,79.918 C1092.19877,90.109 1102.66677,96.154 1112.85277,93.423 M1179.57177,244.842 C1176.17877,244.842 1173.43177,247.592 1173.43177,250.978 C1173.43177,254.367 1176.17877,257.115 1179.57177,257.115 C1182.95777,257.115 1185.71477,254.377 1185.71477,250.978 C1185.70877,247.592 1182.95777,244.842 1179.57177,244.842 M1189.11477,203.92 C1189.11477,198.646 1184.84577,194.376 1179.57177,194.376 C1174.29577,194.376 1170.02077,198.646 1170.02077,203.92 C1170.02077,209.196 1174.29577,213.466 1179.57177,213.466 C1184.84577,213.466 1189.11477,209.196 1189.11477,203.92 M1179.57177,129.581 C1172.03677,129.581 1165.93077,135.69 1165.93077,143.223 C1165.93077,150.755 1172.03677,156.864 1179.57177,156.864 C1187.10477,156.864 1193.21077,150.755 1193.21077,143.223 C1193.21077,135.69 1187.10477,129.581 1179.57177,129.581 M1179.57177,85.932 C1190.86977,85.932 1200.03177,76.767 1200.03177,65.467 C1200.03177,54.167 1190.86977,45 1179.57177,45 C1168.27177,45 1159.10977,54.167 1159.10977,65.467 C1159.10977,76.767 1168.27177,85.932 1179.57177,85.932 M1196.64777,252.251 C1195.67477,255.886 1197.83377,259.63 1201.47277,260.606 C1205.10477,261.582 1208.84677,259.415 1209.82277,255.783 C1210.79677,252.139 1208.63777,248.402 1204.99777,247.428 C1201.36077,246.453 1197.62377,248.62 1196.64777,252.251 M1212.76877,218.442 C1218.22677,219.9 1223.83077,216.657 1225.29377,211.206 C1226.75577,205.748 1223.51777,200.144 1218.05777,198.677 C1212.60977,197.22 1207.00077,200.452 1205.53877,205.912 C1204.07577,211.373 1207.31277,216.975 1212.76877,218.442 M1227.24477,164.417 C1235.24377,166.561 1243.47077,161.809 1245.61677,153.803 C1247.76177,145.809 1243.01477,137.578 1235.00877,135.433 C1227.00977,133.287 1218.78277,138.038 1216.63677,146.045 C1214.49277,154.041 1219.23877,162.271 1227.24477,164.417 M1245.60177,95.898 C1257.24577,99.017 1269.21177,92.11 1272.32677,80.471 C1275.44577,68.833 1268.54077,56.867 1256.89377,53.746 C1245.25677,50.624 1233.29477,57.532 1230.17077,69.171 C1227.05577,80.82 1233.96077,92.778 1245.60177,95.898 M1229.06077,256.572 C1225.47477,254.51 1220.88577,255.729 1218.81277,259.323 C1216.74377,262.904 1217.97077,267.494 1221.55877,269.565 C1225.14477,271.64 1229.73477,270.408 1231.80677,266.825 C1233.87877,263.234 1232.64877,258.646 1229.06077,256.572 M1254.29477,212.871 C1249.07477,209.851 1242.40277,211.64 1239.39077,216.862 C1236.37877,222.077 1238.16377,228.759 1243.38377,231.766 C1248.60377,234.783 1255.27277,232.988 1258.28577,227.773 C1261.30577,222.558 1259.51277,215.878 1254.29477,212.871 M1265.01377,161.564 C1260.49877,169.394 1263.18177,179.401 1271.00777,183.916 C1278.83477,188.444 1288.84677,185.766 1293.36777,177.933 C1297.88277,170.103 1295.20377,160.096 1287.37377,155.57 C1279.54677,151.053 1269.53977,153.731 1265.01377,161.564 M1306.47277,122.492 C1317.56277,128.894 1331.74277,125.096 1338.14277,114.003 C1344.54977,102.918 1340.75077,88.734 1329.65777,82.33 C1318.56777,75.935 1304.39077,79.733 1297.99077,90.816 C1291.58777,101.912 1295.38277,116.086 1306.47277,122.492 M1238.49977,283.32 C1241.69577,286.521 1246.87777,286.521 1250.07677,283.32 C1253.26777,280.128 1253.26777,274.944 1250.07677,271.743 C1246.87277,268.549 1241.69577,268.549 1238.49977,271.753 C1235.30077,274.944 1235.30077,280.128 1238.49977,283.32 M1268.88477,235.572 C1264.08977,240.367 1264.08977,248.145 1268.88477,252.94 C1273.68077,257.732 1281.45177,257.732 1286.24377,252.94 C1291.04177,248.145 1291.03677,240.367 1286.24377,235.572 C1281.45177,230.78 1273.67677,230.78 1268.88477,235.572 M1333.02577,188.793 C1326.10277,181.865 1314.87477,181.865 1307.94577,188.793 C1301.02277,195.721 1301.02277,206.947 1307.94577,213.875 C1314.87477,220.804 1326.10277,220.804 1333.02577,213.875 C1339.94877,206.947 1339.94877,195.721 1333.02577,188.793 M1392.82677,163.718 C1402.41377,154.134 1402.41377,138.584 1392.82677,128.997 C1383.24277,119.4 1367.69277,119.41 1358.10577,128.997 C1348.50977,138.584 1348.51877,154.134 1358.10577,163.718 C1367.69277,173.305 1383.24277,173.305 1392.82677,163.718 M1254.44277,288.739 C1250.20477,291.18 1248.74777,296.6 1251.19277,300.839 C1253.64177,305.078 1259.06577,306.535 1263.30977,304.092 C1267.54977,301.641 1269.00177,296.221 1266.55377,291.982 C1264.10377,287.743 1258.68177,286.286 1254.44277,288.739 M1292.81377,261.067 C1286.29077,264.835 1284.05177,273.179 1287.81877,279.705 C1291.58777,286.224 1299.92477,288.46 1306.44777,284.695 C1312.97577,280.927 1315.20777,272.582 1311.44177,266.067 C1307.67477,259.538 1299.33577,257.302 1292.81377,261.067 M1335.66177,252.077 C1340.93477,261.211 1352.61477,264.34 1361.75077,259.067 C1370.87377,253.801 1374.00477,242.121 1368.73777,232.988 C1363.46477,223.851 1351.78477,220.722 1342.64877,225.998 C1333.52277,231.271 1330.39277,242.954 1335.66177,252.077 M1395.90577,217.295 C1403.45077,230.34 1420.13077,234.814 1433.17477,227.281 C1446.22177,219.746 1450.69677,203.069 1443.16077,190.015 C1435.62877,176.97 1418.94177,172.503 1405.89177,180.038 C1392.84677,187.571 1388.38377,204.25 1395.90577,217.295 M1270.55177,327.647 C1275.64277,326.282 1278.66577,321.047 1277.30077,315.945 C1275.93477,310.856 1270.69977,307.839 1265.61077,309.204 C1260.51777,310.569 1257.49677,315.802 1258.85677,320.893 C1260.22677,325.983 1265.45477,329.013 1270.55177,327.647 M1317.42077,320.729 C1325.41977,318.583 1330.17277,310.364 1328.02577,302.357 C1325.88277,294.351 1317.65577,289.61 1309.65377,291.756 C1301.65577,293.9 1296.90177,302.122 1299.04877,310.126 C1301.19177,318.133 1309.41377,322.873 1317.42077,320.729 M1377.46477,310.292 C1388.37277,307.368 1394.84977,296.149 1391.92577,285.238 C1389.00077,274.327 1377.79177,267.852 1366.87077,270.777 C1355.96277,273.702 1349.48477,284.92 1352.40977,295.829 C1355.33477,306.74 1366.55377,313.218 1377.46477,310.292 M1418.29377,278.176 C1422.58377,294.177 1439.03777,303.671 1455.03777,299.391 C1471.04877,295.101 1480.54077,278.648 1476.25077,262.647 C1471.96077,246.637 1455.50977,237.145 1439.50977,241.435 C1423.50877,245.725 1414.00377,262.176 1418.29377,278.176" id="Fill-1"></path>
            </g>
        </g>
    </g>
</svg>