<svg xmlns="http://www.w3.org/2000/svg" width="19" height="16" viewBox="0 0 19 16">
    <g fill="#2F81FF" fill-rule="nonzero" stroke="#2F81FF" stroke-width=".2">
        <path d="M5.911 15.117v.032a7.275 7.275 0 0 1 .605-13.94.567.567 0 1 1 .273 1.1 6.141 6.141 0 0 0-.668 11.71.567.567 0 0 1-.21 1.098zM15.491 7.386a.567.567 0 0 1-1.125.136 6.094 6.094 0 0 0-.448-1.67.567.567 0 0 1 1.042-.446c.269.629.448 1.294.531 1.98zM13.9 3.662a.567.567 0 0 1-.876.719 6.177 6.177 0 0 0-1.273-1.172.567.567 0 1 1 .643-.933A7.31 7.31 0 0 1 13.9 3.662zM10.543 1.358a.567.567 0 1 1-.354 1.076 6.121 6.121 0 0 0-1.703-.301A.567.567 0 1 1 8.526 1c.691.024 1.369.145 2.017.358zM7.712 15.52a.567.567 0 0 1 .086-1.13c.157.011.314.017.472.017a.567.567 0 1 1 0 1.133c-.187 0-.373-.007-.558-.02zM11.885 13.534l5.265-5.266h.142l.708.709v.141l-6.045 6.045h-.141L9.052 12.4v-.141l.708-.709H9.9l1.984 1.984z"/>
    </g>
</svg>
