<svg xmlns="http://www.w3.org/2000/svg" width="19" height="17" viewBox="0 0 19 17">
    <g fill="#FFF" fill-rule="nonzero" stroke="#FFF" stroke-width=".2">
        <path d="M6.2 15.948v.033a7.703 7.703 0 0 1 .64-14.76.6.6 0 1 1 .29 1.166 6.502 6.502 0 0 0-.707 12.4.6.6 0 0 1-.223 1.16zM16.344 7.761a.6.6 0 0 1-1.191.145 6.452 6.452 0 0 0-.475-1.768.6.6 0 1 1 1.103-.472c.285.665.475 1.37.563 2.095zM14.66 3.82a.6.6 0 0 1-.93.76 6.54 6.54 0 0 0-1.347-1.241.6.6 0 0 1 .68-.988 7.74 7.74 0 0 1 1.596 1.468zM11.104 1.379a.6.6 0 1 1-.374 1.14 6.481 6.481 0 0 0-1.803-.32A.6.6 0 1 1 8.967 1c.734.025 1.451.153 2.137.379zM8.107 16.373a.6.6 0 0 1 .091-1.196c.166.012.332.019.5.019a.6.6 0 0 1 0 1.2c-.198 0-.395-.008-.59-.023zM17.925 9.62l-2.975 2.976 2.975 2.975-.75.75-2.975-2.975-2.975 2.975-.75-.75 2.975-2.975-2.975-2.975.75-.75 2.975 2.975 2.975-2.975z"/>
    </g>
</svg>
