<svg xmlns="http://www.w3.org/2000/svg" xmlns:xlink="http://www.w3.org/1999/xlink" width="54" height="34" viewBox="0 0 54 34">
    <defs>
        <path id="a" d="M0 .03h33.954v33.423H0z"/>
        <path id="c" d="M0 .03h33.956v33.422H0z"/>
        <path id="e" d="M0 .03h33.956v23.366H0z"/>
    </defs>
    <g fill="none" fill-rule="evenodd">
        <g transform="translate(0 .103)">
            <mask id="b" fill="#fff">
                <use xlink:href="#a"/>
            </mask>
            <path fill="#24A2D9" d="M20.278 10.527a7.133 7.133 0 0 0-3.566-.948c-3.95 0-7.163 3.213-7.163 7.162s3.213 7.162 7.163 7.162a7.18 7.18 0 0 0 5.865-3.05 4.775 4.775 0 1 1 7.812 5.493 16.74 16.74 0 0 1-13.677 7.107C7.497 33.453 0 25.956 0 16.74S7.497.029 16.712.029c3.256 0 6.413.938 9.13 2.713l.384.251 7.728 7.514" mask="url(#b)"/>
        </g>
        <path fill="#0F4157" d="M19.364 23.495a7.186 7.186 0 0 0 3.213-2.539 4.775 4.775 0 1 1 7.812 5.493 16.748 16.748 0 0 1-11.025 6.894"/>
        <g transform="translate(19.364 .103)">
            <mask id="d" fill="#fff">
                <use xlink:href="#c"/>
            </mask>
            <path fill="#73BC52" d="M17.245.03c9.215 0 16.711 7.496 16.711 16.71 0 9.216-7.496 16.712-16.711 16.712-3.256 0-6.413-.938-9.13-2.713l-.385-.25-7.727-7.514c.008.02-.01-13.418 0-13.396l13.676 13.375a7.133 7.133 0 0 0 3.566.949c3.95 0 7.162-3.213 7.162-7.162 0-3.95-3.213-7.162-7.162-7.162a7.18 7.18 0 0 0-5.866 3.05 4.775 4.775 0 1 1-7.811-5.493A16.74 16.74 0 0 1 17.245.029" mask="url(#d)"/>
        </g>
        <path fill="#2E4B21" d="M33.025 23.078l-13.658-8.09-.003-5.306 13.264 11.804z"/>
        <g transform="translate(0 .103)">
            <mask id="f" fill="#fff">
                <use xlink:href="#e"/>
            </mask>
            <path fill="#24A2D9" d="M0 16.74C0 7.527 7.497.03 16.712.03c3.256 0 6.413.937 9.13 2.712l.384.251 7.728 7.514c-.008-.019.005 10.444.002 12.89 0 0-.776-.35-1.022-.492-.572-.328-12.656-12.378-12.656-12.378a7.133 7.133 0 0 0-3.566-.948c-3.95 0-7.162 3.213-7.162 7.162H0z" mask="url(#f)"/>
        </g>
    </g>
</svg>
