<?xml version="1.0" encoding="UTF-8"?>
<svg width="616px" height="308px" viewBox="0 0 616 308" version="1.1" xmlns="http://www.w3.org/2000/svg" xmlns:xlink="http://www.w3.org/1999/xlink">
    <!-- Generator: Sketch 64 (93537) - https://sketch.com -->
    <title>Group 6</title>
    <desc>Created with Sketch.</desc>
    <g id="Page-1" stroke="none" stroke-width="1" fill="none" fill-rule="evenodd">
        <g id="Activities_meetings_Activity-details_1-Copy" transform="translate(-730.000000, -292.000000)">
            <g id="Group-6" transform="translate(730.000000, 292.000000)">
                <path d="M108.879223,38 C143.133223,41.729433 138.378,98.4852401 174.652,108.265998 C205.317,116.536176 247.749399,114.381105 277.240956,121.335364 C370.027833,143.214983 326.798058,230.304229 375.697631,279.247682 C417.512046,319.22746 582.237,298.799395 615,298.652339" id="Stroke-1" stroke="#2F81FF" stroke-width="7"></path>
                <g id="Group-3">
                    <path d="M81,28 L90,28 L90,28 L90,48 L81,48 C80.4477153,48 80,47.5522847 80,47 L80,29 C80,28.4477153 80.4477153,28 81,28 Z" id="Rectangle" fill="#9B9B9B" transform="translate(85.000000, 38.000000) scale(-1, 1) translate(-85.000000, -38.000000) "></path>
                    <path d="M96,30 L110,30 L110,30 L110,45 L96,45 C92.6862915,45 90,42.3137085 90,39 L90,36 C90,32.6862915 92.6862915,30 96,30 Z" id="Rectangle" fill="#4A4A4A" transform="translate(100.000000, 37.500000) scale(-1, 1) translate(-100.000000, -37.500000) "></path>
                    <path d="M4,5 L33,5 L33,5 L33,70 L4,70 C1.790861,70 2.705415e-16,68.209139 0,66 L0,9 C-2.705415e-16,6.790861 1.790861,5 4,5 Z" id="Rectangle" fill="#D8D8D8"></path>
                    <rect id="Rectangle" fill="#9B9B9B" x="32" y="0" width="13" height="75"></rect>
                    <path d="M45,10 L73,10 C76.8659932,10 80,13.1340068 80,17 L80,58 C80,61.8659932 76.8659932,65 73,65 L45,65 L45,65 L45,10 Z" id="Rectangle" fill="#D8D8D8"></path>
                </g>
            </g>
        </g>
    </g>
</svg>