<?xml version="1.0" encoding="UTF-8"?>
<svg width="581px" height="284px" viewBox="0 0 581 284" version="1.1" xmlns="http://www.w3.org/2000/svg" xmlns:xlink="http://www.w3.org/1999/xlink">
    <!-- Generator: Sketch 64 (93537) - https://sketch.com -->
    <title>Group 5</title>
    <desc>Created with Sketch.</desc>
    <g id="Page-1" stroke="none" stroke-width="1" fill="none" fill-rule="evenodd">
        <g id="Activities_meetings_Activity-details_1-Copy" transform="translate(-94.000000, -292.000000)">
            <g id="Group-5" transform="translate(95.000000, 292.000000)">
                <g id="Group-2" transform="translate(473.000000, 0.000000)">
                    <path d="M4,10 L35,10 L35,10 L35,65 L4,65 C1.790861,65 2.705415e-16,63.209139 0,61 L0,14 C-2.705415e-16,11.790861 1.790861,10 4,10 Z" id="Rectangle" fill="#D8D8D8"></path>
                    <path d="M47,5 L77,5 C78.6568542,5 80,6.34314575 80,8 L80,67 C80,68.6568542 78.6568542,70 77,70 L47,70 L47,70 L47,5 Z" id="Rectangle" fill="#D8D8D8"></path>
                    <rect id="Rectangle" fill="#9B9B9B" x="34" y="0" width="13" height="75"></rect>
                    <rect id="Rectangle" fill="#EF3341" x="79" y="15" width="28" height="8"></rect>
                    <rect id="Rectangle" fill="#EF3341" x="79" y="52" width="28" height="8"></rect>
                </g>
                <path d="M1.13686838e-13,280.564194 C1.13686838e-13,280.564194 38.9051432,273.345595 79.2844582,232.653493 C100.917305,210.852795 99.8938798,174.616676 155.955385,142.709482 C206.012263,114.218808 283.299843,143.021621 319.930264,137.639227 C400.89178,125.742934 384.172173,76.0828434 406.647546,48.91976 C419.753184,33.0817145 446.382853,37.074659 446.382853,37.074659" id="Stroke-1" stroke="#0E3570" stroke-width="7"></path>
                <path d="M451,30 L465,30 L465,30 L465,45 L451,45 C447.686292,45 445,42.3137085 445,39 L445,36 C445,32.6862915 447.686292,30 451,30 Z" id="Rectangle" fill="#4A4A4A"></path>
                <path d="M464,28 L473,28 L473,28 L473,48 L464,48 C463.447715,48 463,47.5522847 463,47 L463,29 C463,28.4477153 463.447715,28 464,28 Z" id="Rectangle" fill="#9B9B9B"></path>
            </g>
        </g>
    </g>
</svg>