<svg xmlns="http://www.w3.org/2000/svg" width="84" height="99" viewBox="0 0 84 99">
    <g fill="#000" fill-rule="nonzero" opacity=".1">
        <path d="M62.237 0H5.763C2.585 0 0 2.617 0 5.833v19.834c0 1.074.86 1.944 1.92 1.944 1.062 0 1.922-.87 1.922-1.944V5.833c0-1.072.862-1.944 1.92-1.944h56.475c1.06 0 1.921.872 1.921 1.944v72.334c0 1.072-.862 1.944-1.92 1.944H5.762c-1.06 0-1.921-.872-1.921-1.944V42.065c0-1.074-.86-1.945-1.921-1.945C.86 40.12 0 40.99 0 42.065v36.102C0 81.383 2.585 84 5.763 84h56.474C65.415 84 68 81.383 68 78.167V5.833C68 2.617 65.415 0 62.237 0z"/>
        <path d="M3.414 32.584A2.012 2.012 0 0 0 2 32c-.526 0-1.042.212-1.414.584-.372.374-.586.89-.586 1.414 0 .528.214 1.042.586 1.416.372.372.888.586 1.414.586.526 0 1.042-.214 1.414-.586.372-.372.586-.888.586-1.416 0-.526-.214-1.04-.586-1.414zM11.414 87.586A2.011 2.011 0 0 0 10 87c-.526 0-1.042.214-1.414.586A2.014 2.014 0 0 0 8 89c0 .528.214 1.042.586 1.414A2.003 2.003 0 0 0 12 89c0-.526-.214-1.042-.586-1.414zM74.09 8c-1.056 0-1.912.87-1.912 1.944v76.223c0 1.072-.857 1.944-1.91 1.944H17.91c-1.055 0-1.911.87-1.911 1.945 0 1.073.856 1.944 1.91 1.944h52.358C73.428 92 76 89.383 76 86.167V9.944C76 8.871 75.144 8 74.09 8z"/>
        <path d="M82.08 15c-1.062 0-1.922.87-1.922 1.944v76.223c0 1.072-.862 1.944-1.92 1.944H17.92c-1.06 0-1.921.87-1.921 1.945 0 1.073.86 1.944 1.92 1.944h60.317C81.415 99 84 96.383 84 93.167V16.944C84 15.871 83.14 15 82.08 15zM31.103 14H12.897C11.849 14 11 14.85 11 15.897v18.206c0 1.048.85 1.897 1.897 1.897h18.206C32.151 36 33 35.15 33 34.103V15.897C33 14.849 32.15 14 31.103 14zm-1.896 18.207H14.793V17.793h14.414v14.414zM25.439 45.546a1.954 1.954 0 0 0-2.71 0L17.639 50.5l-2.368-2.303a1.954 1.954 0 0 0-2.709 0 1.828 1.828 0 0 0 0 2.635l3.722 3.622c.36.35.847.546 1.355.546s.995-.196 1.354-.546l6.447-6.272a1.828 1.828 0 0 0 0-2.636z"/>
        <path d="M56.098 48H33.902c-1.05 0-1.902.895-1.902 2s.852 2 1.902 2h22.196c1.05 0 1.902-.895 1.902-2s-.852-2-1.902-2zM55.111 14H41.89C40.846 14 40 14.895 40 16s.846 2 1.889 2H55.11C56.154 18 57 17.105 57 16s-.846-2-1.889-2zM55.111 24H41.89C40.846 24 40 24.895 40 26s.846 2 1.889 2H55.11C56.154 28 57 27.105 57 26s-.846-2-1.889-2zM55.111 33H41.89C40.846 33 40 33.895 40 35s.846 2 1.889 2H55.11C56.154 37 57 36.105 57 35s-.846-2-1.889-2zM25.439 60.546a1.954 1.954 0 0 0-2.71 0L17.639 65.5l-2.368-2.303a1.954 1.954 0 0 0-2.709 0 1.828 1.828 0 0 0 0 2.635l3.722 3.622c.36.35.847.546 1.355.546s.995-.196 1.354-.546l6.447-6.272a1.828 1.828 0 0 0 0-2.636zM56.098 63H33.902c-1.05 0-1.902.895-1.902 2s.852 2 1.902 2h22.196c1.05 0 1.902-.895 1.902-2s-.852-2-1.902-2z"/>
    </g>
</svg>
