<svg id="svg" xmlns="http://www.w3.org/2000/svg" xmlns:xlink="http://www.w3.org/1999/xlink" width="400" height="400" viewBox="0, 0, 400,400" version="1.1"><g id="svgg"><path id="path0" d="" stroke="none" fill="#000000" fill-rule="evenodd"></path><path id="path1" d="M164.100 1.465 C 163.825 1.576,163.600 2.187,163.600 2.823 L 163.600 3.980 157.100 4.090 L 150.600 4.200 150.473 5.300 L 150.347 6.400 146.873 6.423 C 141.546 6.458,140.226 6.782,140.075 8.091 L 139.950 9.172 136.075 9.286 C 132.231 9.399,132.199 9.408,132.079 10.443 C 131.962 11.452,131.848 11.494,128.531 11.749 C 124.565 12.053,124.400 12.120,124.400 13.424 C 124.400 14.359,124.290 14.400,121.800 14.400 C 119.593 14.400,119.199 14.506,119.194 15.100 C 119.183 16.395,118.558 16.809,116.173 17.105 C 113.978 17.378,113.791 17.481,113.675 18.482 C 113.556 19.512,113.433 19.569,111.075 19.682 C 108.603 19.800,108.600 19.802,108.475 21.100 L 108.349 22.400 105.775 22.400 L 103.200 22.400 103.200 23.581 C 103.200 24.750,103.175 24.763,100.700 24.881 C 98.208 25.000,98.200 25.004,98.076 26.282 C 97.953 27.557,97.941 27.564,95.476 27.682 C 93.106 27.795,92.995 27.847,92.873 28.900 C 92.767 29.821,92.556 30.000,91.573 30.000 C 90.499 30.000,90.400 30.118,90.400 31.400 L 90.400 32.800 87.800 32.800 L 85.200 32.800 85.200 33.975 C 85.200 35.008,85.043 35.164,83.900 35.275 C 82.757 35.385,82.585 35.557,82.475 36.700 C 82.351 37.985,82.325 38.000,80.255 38.000 C 78.061 38.000,77.200 38.474,77.200 39.680 C 77.200 40.165,76.899 40.400,76.280 40.400 C 75.108 40.400,74.400 41.108,74.400 42.280 C 74.400 43.036,74.186 43.200,73.200 43.200 C 72.146 43.200,72.000 43.340,72.000 44.344 C 72.000 45.443,71.901 45.502,69.500 45.844 C 67.189 46.173,66.991 46.281,66.876 47.276 C 66.780 48.103,66.506 48.380,65.688 48.476 C 64.878 48.571,64.538 48.908,64.255 49.900 C 63.948 50.977,63.688 51.200,62.742 51.200 C 61.745 51.200,61.600 51.349,61.600 52.375 C 61.600 53.408,61.443 53.564,60.300 53.675 C 59.157 53.785,58.985 53.957,58.875 55.100 C 58.764 56.243,58.608 56.400,57.575 56.400 C 56.542 56.400,56.400 56.542,56.400 57.575 C 56.400 58.608,56.243 58.764,55.100 58.875 C 53.957 58.985,53.785 59.157,53.675 60.300 C 53.564 61.443,53.408 61.600,52.375 61.600 C 51.336 61.600,51.200 61.739,51.200 62.800 C 51.200 63.716,51.019 64.000,50.433 64.000 C 48.988 64.000,48.400 64.467,48.400 65.616 C 48.400 66.552,48.211 66.769,47.300 66.873 C 46.276 66.991,46.175 67.173,45.844 69.500 C 45.502 71.901,45.443 72.000,44.344 72.000 C 43.345 72.000,43.200 72.149,43.200 73.175 C 43.200 74.208,43.043 74.364,41.900 74.475 C 40.757 74.585,40.585 74.757,40.475 75.900 C 40.364 77.043,40.208 77.200,39.175 77.200 C 38.099 77.200,38.000 77.318,38.000 78.600 C 38.000 79.884,37.902 80.000,36.820 80.000 C 35.677 80.000,35.631 80.074,35.373 82.359 C 35.124 84.556,35.026 84.735,33.953 84.949 C 32.987 85.143,32.800 85.377,32.800 86.390 C 32.800 87.458,32.664 87.600,31.643 87.600 C 30.275 87.600,30.000 88.141,30.000 90.833 C 30.000 92.752,29.971 92.800,28.800 92.800 C 27.695 92.800,27.600 92.911,27.600 94.200 C 27.600 95.421,27.474 95.600,26.614 95.600 C 25.360 95.600,24.800 96.641,24.800 98.974 C 24.800 100.736,24.758 100.800,23.600 100.800 L 22.400 100.800 22.400 103.400 L 22.400 106.000 21.000 106.000 L 19.600 106.000 19.600 108.600 L 19.600 111.200 18.400 111.200 C 17.256 111.200,17.200 111.279,17.195 112.900 C 17.186 115.706,16.860 116.400,15.553 116.400 C 14.402 116.400,14.400 116.404,14.400 118.973 C 14.400 121.481,14.372 121.550,13.305 121.673 C 12.058 121.818,11.665 123.131,11.623 127.300 C 11.600 129.584,11.592 129.600,10.400 129.600 L 9.200 129.600 9.200 133.400 L 9.200 137.200 8.043 137.200 C 6.569 137.200,6.400 137.677,6.400 141.833 L 6.400 145.200 5.200 145.200 L 4.000 145.200 4.000 150.400 L 4.000 155.600 2.843 155.600 C 1.276 155.600,1.200 155.936,1.200 162.833 C 1.200 167.870,1.107 168.800,0.600 168.800 C 0.072 168.800,0.000 172.689,0.000 201.400 C 0.000 229.862,0.075 234.000,0.590 234.000 C 1.080 234.000,1.198 235.065,1.290 240.300 L 1.400 246.600 2.689 246.980 L 3.977 247.359 4.089 252.380 L 4.200 257.400 5.285 257.525 C 6.368 257.650,6.371 257.658,6.485 261.325 L 6.600 265.000 7.886 265.124 L 9.172 265.249 9.286 269.124 C 9.399 272.969,9.408 273.001,10.443 273.121 C 11.452 273.238,11.494 273.352,11.749 276.669 C 12.053 280.635,12.120 280.800,13.424 280.800 C 14.351 280.800,14.400 280.921,14.400 283.221 C 14.400 285.552,14.444 285.657,15.602 286.061 C 16.860 286.499,17.110 287.052,17.293 289.800 C 17.387 291.210,17.529 291.415,18.482 291.525 C 19.512 291.644,19.569 291.767,19.682 294.125 C 19.799 296.589,19.806 296.601,21.082 296.724 C 22.357 296.847,22.364 296.859,22.482 299.324 C 22.595 301.694,22.647 301.805,23.700 301.927 C 24.732 302.045,24.800 302.174,24.800 303.998 C 24.800 306.094,25.501 307.200,26.829 307.200 C 27.419 307.200,27.600 307.481,27.600 308.400 C 27.600 309.467,27.733 309.600,28.800 309.600 C 29.944 309.600,30.000 309.679,30.005 311.300 C 30.014 314.106,30.340 314.800,31.647 314.800 C 32.698 314.800,32.800 314.924,32.800 316.200 C 32.800 317.474,32.903 317.600,33.944 317.600 C 35.036 317.600,35.098 317.700,35.314 319.790 C 35.590 322.464,35.781 322.800,37.024 322.800 C 37.844 322.800,38.000 322.994,38.000 324.010 C 38.000 325.029,38.186 325.257,39.178 325.456 C 40.078 325.636,40.384 325.940,40.478 326.746 C 40.578 327.612,40.832 327.822,41.900 327.925 C 43.090 328.040,43.200 328.167,43.200 329.425 C 43.200 330.679,43.303 330.800,44.373 330.800 C 45.356 330.800,45.567 330.979,45.673 331.900 C 45.779 332.817,46.017 333.021,47.100 333.125 C 48.371 333.248,48.400 333.294,48.400 335.193 C 48.400 337.858,48.677 338.400,50.043 338.400 C 51.055 338.400,51.200 338.546,51.200 339.568 C 51.200 340.531,51.403 340.781,52.354 340.990 C 53.226 341.181,53.567 341.533,53.744 342.422 C 53.943 343.414,54.171 343.600,55.190 343.600 C 56.270 343.600,56.400 343.730,56.400 344.810 C 56.400 345.829,56.586 346.057,57.578 346.256 C 58.467 346.433,58.819 346.774,59.010 347.646 C 59.219 348.597,59.469 348.800,60.432 348.800 C 61.454 348.800,61.600 348.945,61.600 349.957 C 61.600 351.323,62.142 351.600,64.807 351.600 C 66.706 351.600,66.752 351.629,66.875 352.900 C 66.979 353.983,67.183 354.221,68.100 354.327 C 69.021 354.433,69.200 354.644,69.200 355.627 C 69.200 356.697,69.321 356.800,70.575 356.800 C 71.833 356.800,71.960 356.910,72.075 358.100 C 72.178 359.168,72.388 359.422,73.254 359.522 C 74.060 359.616,74.364 359.922,74.544 360.822 C 74.743 361.814,74.971 362.000,75.990 362.000 C 77.006 362.000,77.200 362.156,77.200 362.976 C 77.200 364.219,77.536 364.410,80.210 364.686 C 82.300 364.902,82.400 364.964,82.400 366.056 C 82.400 367.097,82.526 367.200,83.800 367.200 C 85.076 367.200,85.200 367.302,85.200 368.353 C 85.200 369.660,85.894 369.986,88.700 369.995 C 90.321 370.000,90.400 370.056,90.400 371.200 C 90.400 372.267,90.533 372.400,91.600 372.400 C 92.519 372.400,92.800 372.581,92.800 373.171 C 92.800 374.499,93.906 375.200,96.002 375.200 C 97.826 375.200,97.955 375.268,98.073 376.300 C 98.195 377.353,98.306 377.405,100.676 377.518 C 103.141 377.636,103.153 377.643,103.276 378.918 C 103.399 380.194,103.411 380.201,105.875 380.318 C 108.233 380.431,108.356 380.488,108.475 381.518 C 108.585 382.471,108.790 382.613,110.200 382.707 C 112.948 382.890,113.501 383.140,113.939 384.398 C 114.343 385.556,114.448 385.600,116.779 385.600 C 119.079 385.600,119.200 385.649,119.200 386.576 C 119.200 387.880,119.365 387.947,123.331 388.251 C 126.648 388.506,126.762 388.548,126.879 389.557 C 126.999 390.592,127.031 390.601,130.876 390.714 L 134.751 390.828 134.876 392.114 L 135.000 393.400 138.675 393.515 C 142.342 393.629,142.350 393.632,142.475 394.715 L 142.600 395.800 147.620 395.911 L 152.641 396.023 153.020 397.311 L 153.400 398.600 159.700 398.710 C 164.935 398.802,166.000 398.920,166.000 399.410 C 166.000 399.925,170.138 400.000,198.600 400.000 C 227.311 400.000,231.200 399.928,231.200 399.400 C 231.200 398.893,232.130 398.800,237.167 398.800 C 244.064 398.800,244.400 398.724,244.400 397.157 L 244.400 396.000 249.600 396.000 L 254.800 396.000 254.800 394.800 L 254.800 393.600 258.167 393.600 C 262.323 393.600,262.800 393.431,262.800 391.957 L 262.800 390.800 266.600 390.800 L 270.400 390.800 270.400 389.600 C 270.400 388.408,270.416 388.400,272.700 388.377 C 276.869 388.335,278.182 387.942,278.327 386.695 C 278.450 385.628,278.519 385.600,281.027 385.600 C 283.596 385.600,283.600 385.598,283.600 384.447 C 283.600 383.140,284.294 382.814,287.100 382.805 C 288.721 382.800,288.800 382.744,288.800 381.600 L 288.800 380.400 291.400 380.400 L 294.000 380.400 294.000 379.000 L 294.000 377.600 296.600 377.600 L 299.200 377.600 299.200 376.400 C 299.200 375.242,299.264 375.200,301.026 375.200 C 303.359 375.200,304.400 374.640,304.400 373.386 C 304.400 372.526,304.579 372.400,305.800 372.400 C 307.089 372.400,307.200 372.305,307.200 371.200 C 307.200 370.029,307.248 370.000,309.167 370.000 C 311.859 370.000,312.400 369.725,312.400 368.357 C 312.400 367.336,312.542 367.200,313.610 367.200 C 314.623 367.200,314.857 367.013,315.051 366.047 C 315.265 364.974,315.444 364.876,317.641 364.627 C 319.926 364.369,320.000 364.323,320.000 363.180 C 320.000 362.098,320.116 362.000,321.400 362.000 C 322.682 362.000,322.800 361.901,322.800 360.825 C 322.800 359.792,322.957 359.636,324.100 359.525 C 325.243 359.415,325.415 359.243,325.525 358.100 C 325.636 356.957,325.792 356.800,326.825 356.800 C 327.851 356.800,328.000 356.655,328.000 355.656 C 328.000 354.557,328.099 354.498,330.500 354.156 C 332.811 353.827,333.009 353.719,333.124 352.724 C 333.220 351.897,333.494 351.620,334.312 351.524 C 335.122 351.429,335.462 351.092,335.745 350.100 C 336.052 349.023,336.312 348.800,337.258 348.800 C 338.255 348.800,338.400 348.651,338.400 347.625 C 338.400 346.592,338.557 346.436,339.700 346.325 C 340.843 346.215,341.015 346.043,341.125 344.900 C 341.236 343.757,341.392 343.600,342.425 343.600 C 343.458 343.600,343.600 343.458,343.600 342.425 C 343.600 341.392,343.757 341.236,344.900 341.125 C 346.043 341.015,346.215 340.843,346.325 339.700 C 346.436 338.557,346.592 338.400,347.625 338.400 C 348.651 338.400,348.800 338.255,348.800 337.258 C 348.800 336.312,349.024 336.052,350.100 335.745 C 351.348 335.388,351.405 335.284,351.519 333.111 C 351.636 330.886,351.660 330.846,352.919 330.724 C 354.041 330.615,354.216 330.439,354.325 329.300 C 354.436 328.157,354.592 328.000,355.625 328.000 C 356.664 328.000,356.800 327.861,356.800 326.800 C 356.800 325.814,356.964 325.600,357.720 325.600 C 358.892 325.600,359.600 324.892,359.600 323.720 C 359.600 323.101,359.835 322.800,360.320 322.800 C 361.526 322.800,362.000 321.939,362.000 319.745 C 362.000 317.675,362.015 317.649,363.300 317.525 C 364.443 317.415,364.615 317.243,364.725 316.100 C 364.836 314.957,364.992 314.800,366.025 314.800 L 367.200 314.800 367.200 312.200 L 367.200 309.600 368.600 309.600 C 369.882 309.600,370.000 309.501,370.000 308.427 C 370.000 307.444,370.179 307.233,371.100 307.127 C 372.153 307.005,372.205 306.894,372.318 304.524 C 372.436 302.059,372.443 302.047,373.718 301.924 C 374.996 301.800,375.000 301.792,375.119 299.300 C 375.237 296.825,375.250 296.800,376.419 296.800 L 377.600 296.800 377.600 294.225 L 377.600 291.651 378.900 291.525 C 380.198 291.400,380.200 291.397,380.318 288.925 C 380.431 286.567,380.488 286.444,381.518 286.325 C 382.519 286.209,382.622 286.022,382.895 283.827 C 383.191 281.442,383.605 280.817,384.900 280.806 C 385.494 280.801,385.600 280.407,385.600 278.200 C 385.600 275.710,385.641 275.600,386.576 275.600 C 387.880 275.600,387.947 275.435,388.251 271.469 C 388.506 268.152,388.548 268.038,389.557 267.921 C 390.592 267.801,390.601 267.769,390.714 263.925 L 390.828 260.050 391.909 259.925 C 393.218 259.774,393.542 258.454,393.577 253.127 L 393.600 249.653 394.700 249.527 L 395.800 249.400 395.910 242.900 L 396.020 236.400 397.167 236.400 C 398.862 236.400,398.800 237.741,398.800 201.341 C 398.800 165.860,398.807 166.000,396.986 166.000 L 396.000 166.000 396.000 159.650 L 396.000 153.300 394.800 153.060 L 393.600 152.820 393.600 149.060 C 393.600 143.786,393.355 142.811,391.960 142.532 L 390.829 142.306 390.714 138.653 L 390.600 135.000 389.500 134.873 C 388.496 134.758,388.400 134.601,388.397 133.073 C 388.388 128.781,387.959 127.172,386.760 126.932 C 385.691 126.718,385.630 126.586,385.518 124.254 C 385.407 121.937,385.341 121.793,384.349 121.678 C 383.261 121.552,382.816 120.347,382.804 117.500 C 382.801 116.545,382.641 116.400,381.600 116.400 L 380.400 116.400 380.394 113.100 C 380.387 109.390,380.251 109.034,378.700 108.654 C 377.806 108.435,377.600 108.161,377.600 107.192 C 377.600 106.134,377.465 106.000,376.400 106.000 L 375.200 106.000 375.200 103.400 L 375.200 100.800 373.800 100.800 L 372.400 100.800 372.400 98.200 L 372.400 95.600 371.200 95.600 C 370.104 95.600,370.000 95.483,370.000 94.250 C 370.000 91.346,369.595 90.400,368.350 90.400 C 367.302 90.400,367.200 90.275,367.200 89.000 C 367.200 87.726,367.097 87.600,366.056 87.600 C 364.964 87.600,364.902 87.500,364.686 85.410 C 364.410 82.736,364.219 82.400,362.976 82.400 C 362.164 82.400,362.000 82.204,362.000 81.232 C 362.000 80.264,361.798 80.019,360.824 79.805 C 359.927 79.608,359.619 79.292,359.524 78.473 C 359.422 77.586,359.174 77.378,358.100 77.275 C 356.910 77.160,356.800 77.033,356.800 75.775 C 356.800 74.524,356.695 74.400,355.639 74.400 C 354.521 74.400,354.469 74.315,354.205 72.043 C 353.950 69.844,353.853 69.671,352.766 69.453 C 351.786 69.257,351.600 69.027,351.600 68.010 C 351.600 66.898,351.489 66.800,350.225 66.800 C 348.967 66.800,348.840 66.690,348.725 65.500 C 348.621 64.417,348.417 64.179,347.500 64.073 C 346.579 63.967,346.400 63.756,346.400 62.773 C 346.400 61.699,346.282 61.600,345.000 61.600 C 343.667 61.600,343.600 61.533,343.600 60.200 C 343.600 58.911,343.505 58.800,342.400 58.800 C 341.333 58.800,341.200 58.667,341.200 57.600 C 341.200 56.495,341.089 56.400,339.800 56.400 C 338.467 56.400,338.400 56.333,338.400 55.000 C 338.400 53.718,338.301 53.600,337.227 53.600 C 336.244 53.600,336.033 53.421,335.927 52.500 C 335.821 51.583,335.583 51.379,334.500 51.275 C 333.310 51.160,333.200 51.033,333.200 49.775 C 333.200 48.511,333.102 48.400,331.990 48.400 C 330.973 48.400,330.743 48.214,330.547 47.234 C 330.329 46.147,330.156 46.050,327.957 45.795 C 325.685 45.531,325.600 45.479,325.600 44.361 C 325.600 43.305,325.476 43.200,324.225 43.200 C 322.967 43.200,322.840 43.090,322.725 41.900 C 322.622 40.826,322.414 40.578,321.527 40.476 C 320.708 40.381,320.392 40.073,320.195 39.176 C 319.981 38.202,319.736 38.000,318.768 38.000 C 317.796 38.000,317.600 37.836,317.600 37.024 C 317.600 35.781,317.264 35.590,314.590 35.314 C 312.500 35.098,312.400 35.036,312.400 33.944 C 312.400 32.903,312.274 32.800,311.000 32.800 C 309.725 32.800,309.600 32.698,309.600 31.650 C 309.600 30.405,308.654 30.000,305.750 30.000 C 304.517 30.000,304.400 29.896,304.400 28.800 L 304.400 27.600 301.800 27.600 L 299.200 27.600 299.200 26.200 L 299.200 24.800 296.600 24.800 L 294.000 24.800 294.000 23.600 C 294.000 22.535,293.866 22.400,292.808 22.400 C 291.839 22.400,291.565 22.194,291.346 21.300 C 290.966 19.749,290.610 19.613,286.900 19.606 L 283.600 19.600 283.600 18.400 C 283.600 17.359,283.455 17.199,282.500 17.196 C 279.653 17.184,278.448 16.739,278.322 15.651 C 278.207 14.659,278.063 14.593,275.746 14.482 C 273.414 14.370,273.282 14.309,273.068 13.240 C 272.828 12.041,271.219 11.612,266.927 11.603 C 265.399 11.600,265.242 11.504,265.127 10.500 L 265.000 9.400 261.347 9.286 L 257.694 9.171 257.468 8.040 C 257.189 6.645,256.214 6.400,250.940 6.400 L 247.180 6.400 246.940 5.200 L 246.700 4.000 240.350 4.000 L 234.000 4.000 234.000 3.014 C 234.000 2.449,233.670 1.852,233.226 1.614 C 232.440 1.193,165.134 1.048,164.100 1.465 M274.010 142.626 C 274.541 144.022,274.541 227.178,274.010 228.574 L 273.620 229.600 209.224 229.600 L 144.828 229.600 144.314 228.700 C 143.904 227.983,143.800 219.243,143.800 185.600 C 143.800 151.957,143.904 143.217,144.314 142.500 L 144.828 141.600 209.224 141.600 L 273.620 141.600 274.010 142.626 M173.115 157.500 C 172.779 157.885,172.411 158.946,172.296 159.858 C 171.834 163.526,166.555 169.114,162.745 169.968 C 157.864 171.061,158.000 170.615,158.001 185.560 C 158.003 199.597,158.530 201.200,163.142 201.200 C 166.081 201.200,172.385 208.447,172.396 211.838 C 172.405 214.563,170.098 214.401,208.631 214.394 C 247.348 214.388,245.182 214.547,245.674 211.664 C 246.463 207.041,251.476 201.697,255.690 200.985 C 256.899 200.781,257.837 200.257,258.899 199.195 L 260.400 197.694 260.400 185.993 C 260.400 170.809,260.446 170.959,255.506 170.053 C 254.464 169.862,253.204 169.410,252.706 169.048 C 252.208 168.687,251.125 167.941,250.300 167.391 C 249.475 166.840,248.800 166.243,248.800 166.064 C 248.800 165.884,248.239 164.891,247.554 163.856 C 246.869 162.822,246.101 161.040,245.847 159.896 C 245.113 156.590,247.796 156.813,208.562 156.806 C 175.877 156.800,173.686 156.843,173.115 157.500 M215.364 164.782 C 216.225 164.982,217.422 165.509,218.024 165.955 C 218.627 166.400,219.570 166.878,220.121 167.016 C 221.440 167.347,227.460 173.388,227.793 174.715 C 227.936 175.285,228.417 176.262,228.861 176.885 C 230.553 179.262,230.878 190.474,229.337 193.358 C 228.972 194.041,228.265 195.413,227.766 196.407 C 225.620 200.677,217.898 206.380,214.221 206.410 C 213.550 206.415,212.190 206.607,211.200 206.836 C 204.950 208.280,192.941 202.802,190.770 197.517 C 190.472 196.792,189.834 195.613,189.350 194.897 C 186.830 191.159,187.004 180.881,189.677 175.678 C 191.396 172.330,196.042 167.200,197.354 167.200 C 197.650 167.200,198.394 166.805,199.008 166.323 C 201.200 164.598,210.709 163.702,215.364 164.782 M127.777 171.289 C 128.329 172.077,128.400 176.133,128.400 207.027 L 128.400 241.876 129.242 242.638 C 130.059 243.378,131.737 243.406,186.742 243.600 C 244.435 243.804,244.547 243.807,244.955 245.328 C 245.268 246.494,245.265 254.776,244.951 256.345 C 244.530 258.450,246.288 258.395,178.909 258.398 L 116.018 258.400 115.309 257.318 C 114.210 255.640,114.210 173.160,115.309 171.482 L 116.018 170.400 121.587 170.400 C 126.887 170.400,127.185 170.443,127.777 171.289 " stroke="none" fill="#ffffff" fill-rule="evenodd"></path><path id="path2" d="M144.314 142.500 C 143.904 143.217,143.800 151.957,143.800 185.600 C 143.800 219.243,143.904 227.983,144.314 228.700 L 144.828 229.600 209.224 229.600 L 273.620 229.600 274.010 228.574 C 274.541 227.178,274.541 144.022,274.010 142.626 L 273.620 141.600 209.224 141.600 L 144.828 141.600 144.314 142.500 M244.392 157.314 C 245.133 157.688,245.502 158.345,245.847 159.896 C 246.101 161.040,246.869 162.822,247.554 163.856 C 248.239 164.891,248.800 165.884,248.800 166.064 C 248.800 166.243,249.475 166.840,250.300 167.391 C 251.125 167.941,252.208 168.687,252.706 169.048 C 253.204 169.410,254.464 169.862,255.506 170.053 C 260.446 170.959,260.400 170.809,260.400 185.993 L 260.400 197.694 258.899 199.195 C 257.837 200.257,256.899 200.781,255.690 200.985 C 251.476 201.697,246.463 207.041,245.674 211.664 C 245.182 214.547,247.348 214.388,208.631 214.394 C 170.098 214.401,172.405 214.563,172.396 211.838 C 172.385 208.447,166.081 201.200,163.142 201.200 C 158.530 201.200,158.003 199.597,158.001 185.560 C 158.000 170.615,157.864 171.061,162.745 169.968 C 166.555 169.114,171.834 163.526,172.296 159.858 C 172.717 156.519,169.386 156.799,208.562 156.806 C 235.708 156.810,243.619 156.923,244.392 157.314 M201.962 164.950 C 200.950 165.222,199.621 165.840,199.008 166.323 C 198.394 166.805,197.650 167.200,197.354 167.200 C 196.042 167.200,191.396 172.330,189.677 175.678 C 187.004 180.881,186.830 191.159,189.350 194.897 C 189.834 195.613,190.472 196.792,190.770 197.517 C 192.941 202.802,204.950 208.280,211.200 206.836 C 212.190 206.607,213.550 206.415,214.221 206.410 C 217.898 206.380,225.620 200.677,227.766 196.407 C 228.265 195.413,228.972 194.041,229.337 193.358 C 230.878 190.474,230.553 179.262,228.861 176.885 C 228.417 176.262,227.936 175.285,227.793 174.715 C 227.460 173.388,221.440 167.347,220.121 167.016 C 219.570 166.878,218.627 166.400,218.024 165.955 C 215.909 164.391,206.271 163.788,201.962 164.950 M115.309 171.482 C 114.210 173.160,114.210 255.640,115.309 257.318 L 116.018 258.400 178.909 258.398 C 246.288 258.395,244.530 258.450,244.951 256.345 C 245.265 254.776,245.268 246.494,244.955 245.328 C 244.547 243.807,244.435 243.804,186.742 243.600 C 131.737 243.406,130.059 243.378,129.242 242.638 L 128.400 241.876 128.400 207.027 C 128.400 176.133,128.329 172.077,127.777 171.289 C 127.185 170.443,126.887 170.400,121.587 170.400 L 116.018 170.400 115.309 171.482 " stroke="none" fill="#2f81ff" fill-rule="evenodd"></path><path id="path3" d="M164.100 1.465 C 163.825 1.576,163.600 2.187,163.600 2.823 L 163.600 3.980 157.100 4.090 L 150.600 4.200 150.473 5.300 L 150.347 6.400 146.873 6.423 C 141.546 6.458,140.226 6.782,140.075 8.091 L 139.950 9.172 136.075 9.286 C 132.231 9.399,132.199 9.408,132.079 10.443 C 131.962 11.452,131.848 11.494,128.531 11.749 C 124.565 12.053,124.400 12.120,124.400 13.424 C 124.400 14.359,124.290 14.400,121.800 14.400 C 119.593 14.400,119.199 14.506,119.194 15.100 C 119.183 16.395,118.558 16.809,116.173 17.105 C 113.978 17.378,113.791 17.481,113.675 18.482 C 113.556 19.512,113.433 19.569,111.075 19.682 C 108.603 19.800,108.600 19.802,108.475 21.100 L 108.349 22.400 105.775 22.400 L 103.200 22.400 103.200 23.581 C 103.200 24.750,103.175 24.763,100.700 24.881 C 98.208 25.000,98.200 25.004,98.076 26.282 C 97.953 27.557,97.941 27.564,95.476 27.682 C 93.106 27.795,92.995 27.847,92.873 28.900 C 92.767 29.821,92.556 30.000,91.573 30.000 C 90.499 30.000,90.400 30.118,90.400 31.400 L 90.400 32.800 87.800 32.800 L 85.200 32.800 85.200 33.975 C 85.200 35.008,85.043 35.164,83.900 35.275 C 82.757 35.385,82.585 35.557,82.475 36.700 C 82.351 37.985,82.325 38.000,80.255 38.000 C 78.061 38.000,77.200 38.474,77.200 39.680 C 77.200 40.165,76.899 40.400,76.280 40.400 C 75.108 40.400,74.400 41.108,74.400 42.280 C 74.400 43.036,74.186 43.200,73.200 43.200 C 72.146 43.200,72.000 43.340,72.000 44.344 C 72.000 45.443,71.901 45.502,69.500 45.844 C 67.189 46.173,66.991 46.281,66.876 47.276 C 66.780 48.103,66.506 48.380,65.688 48.476 C 64.878 48.571,64.538 48.908,64.255 49.900 C 63.948 50.977,63.688 51.200,62.742 51.200 C 61.745 51.200,61.600 51.349,61.600 52.375 C 61.600 53.408,61.443 53.564,60.300 53.675 C 59.157 53.785,58.985 53.957,58.875 55.100 C 58.764 56.243,58.608 56.400,57.575 56.400 C 56.542 56.400,56.400 56.542,56.400 57.575 C 56.400 58.608,56.243 58.764,55.100 58.875 C 53.957 58.985,53.785 59.157,53.675 60.300 C 53.564 61.443,53.408 61.600,52.375 61.600 C 51.336 61.600,51.200 61.739,51.200 62.800 C 51.200 63.716,51.019 64.000,50.433 64.000 C 48.988 64.000,48.400 64.467,48.400 65.616 C 48.400 66.552,48.211 66.769,47.300 66.873 C 46.276 66.991,46.175 67.173,45.844 69.500 C 45.502 71.901,45.443 72.000,44.344 72.000 C 43.345 72.000,43.200 72.149,43.200 73.175 C 43.200 74.208,43.043 74.364,41.900 74.475 C 40.757 74.585,40.585 74.757,40.475 75.900 C 40.364 77.043,40.208 77.200,39.175 77.200 C 38.099 77.200,38.000 77.318,38.000 78.600 C 38.000 79.884,37.902 80.000,36.820 80.000 C 35.677 80.000,35.631 80.074,35.373 82.359 C 35.124 84.556,35.026 84.735,33.953 84.949 C 32.987 85.143,32.800 85.377,32.800 86.390 C 32.800 87.458,32.664 87.600,31.643 87.600 C 30.275 87.600,30.000 88.141,30.000 90.833 C 30.000 92.752,29.971 92.800,28.800 92.800 C 27.695 92.800,27.600 92.911,27.600 94.200 C 27.600 95.421,27.474 95.600,26.614 95.600 C 25.360 95.600,24.800 96.641,24.800 98.974 C 24.800 100.736,24.758 100.800,23.600 100.800 L 22.400 100.800 22.400 103.400 L 22.400 106.000 21.000 106.000 L 19.600 106.000 19.600 108.600 L 19.600 111.200 18.400 111.200 C 17.256 111.200,17.200 111.279,17.195 112.900 C 17.186 115.706,16.860 116.400,15.553 116.400 C 14.402 116.400,14.400 116.404,14.400 118.973 C 14.400 121.481,14.372 121.550,13.305 121.673 C 12.058 121.818,11.665 123.131,11.623 127.300 C 11.600 129.584,11.592 129.600,10.400 129.600 L 9.200 129.600 9.200 133.400 L 9.200 137.200 8.043 137.200 C 6.569 137.200,6.400 137.677,6.400 141.833 L 6.400 145.200 5.200 145.200 L 4.000 145.200 4.000 150.400 L 4.000 155.600 2.843 155.600 C 1.276 155.600,1.200 155.936,1.200 162.833 C 1.200 167.870,1.107 168.800,0.600 168.800 C 0.072 168.800,0.000 172.689,0.000 201.400 C 0.000 229.862,0.075 234.000,0.590 234.000 C 1.080 234.000,1.198 235.065,1.290 240.300 L 1.400 246.600 2.689 246.980 L 3.977 247.359 4.089 252.380 L 4.200 257.400 5.285 257.525 C 6.368 257.650,6.371 257.658,6.485 261.325 L 6.600 265.000 7.886 265.124 L 9.172 265.249 9.286 269.124 C 9.399 272.969,9.408 273.001,10.443 273.121 C 11.452 273.238,11.494 273.352,11.749 276.669 C 12.053 280.635,12.120 280.800,13.424 280.800 C 14.351 280.800,14.400 280.921,14.400 283.221 C 14.400 285.552,14.444 285.657,15.602 286.061 C 16.860 286.499,17.110 287.052,17.293 289.800 C 17.387 291.210,17.529 291.415,18.482 291.525 C 19.512 291.644,19.569 291.767,19.682 294.125 C 19.799 296.589,19.806 296.601,21.082 296.724 C 22.357 296.847,22.364 296.859,22.482 299.324 C 22.595 301.694,22.647 301.805,23.700 301.927 C 24.732 302.045,24.800 302.174,24.800 303.998 C 24.800 306.094,25.501 307.200,26.829 307.200 C 27.419 307.200,27.600 307.481,27.600 308.400 C 27.600 309.467,27.733 309.600,28.800 309.600 C 29.944 309.600,30.000 309.679,30.005 311.300 C 30.014 314.106,30.340 314.800,31.647 314.800 C 32.698 314.800,32.800 314.924,32.800 316.200 C 32.800 317.474,32.903 317.600,33.944 317.600 C 35.036 317.600,35.098 317.700,35.314 319.790 C 35.590 322.464,35.781 322.800,37.024 322.800 C 37.844 322.800,38.000 322.994,38.000 324.010 C 38.000 325.029,38.186 325.257,39.178 325.456 C 40.078 325.636,40.384 325.940,40.478 326.746 C 40.578 327.612,40.832 327.822,41.900 327.925 C 43.090 328.040,43.200 328.167,43.200 329.425 C 43.200 330.679,43.303 330.800,44.373 330.800 C 45.356 330.800,45.567 330.979,45.673 331.900 C 45.779 332.817,46.017 333.021,47.100 333.125 C 48.371 333.248,48.400 333.294,48.400 335.193 C 48.400 337.858,48.677 338.400,50.043 338.400 C 51.055 338.400,51.200 338.546,51.200 339.568 C 51.200 340.531,51.403 340.781,52.354 340.990 C 53.226 341.181,53.567 341.533,53.744 342.422 C 53.943 343.414,54.171 343.600,55.190 343.600 C 56.270 343.600,56.400 343.730,56.400 344.810 C 56.400 345.829,56.586 346.057,57.578 346.256 C 58.467 346.433,58.819 346.774,59.010 347.646 C 59.219 348.597,59.469 348.800,60.432 348.800 C 61.454 348.800,61.600 348.945,61.600 349.957 C 61.600 351.323,62.142 351.600,64.807 351.600 C 66.706 351.600,66.752 351.629,66.875 352.900 C 66.979 353.983,67.183 354.221,68.100 354.327 C 69.021 354.433,69.200 354.644,69.200 355.627 C 69.200 356.697,69.321 356.800,70.575 356.800 C 71.833 356.800,71.960 356.910,72.075 358.100 C 72.178 359.168,72.388 359.422,73.254 359.522 C 74.060 359.616,74.364 359.922,74.544 360.822 C 74.743 361.814,74.971 362.000,75.990 362.000 C 77.006 362.000,77.200 362.156,77.200 362.976 C 77.200 364.219,77.536 364.410,80.210 364.686 C 82.300 364.902,82.400 364.964,82.400 366.056 C 82.400 367.097,82.526 367.200,83.800 367.200 C 85.076 367.200,85.200 367.302,85.200 368.353 C 85.200 369.660,85.894 369.986,88.700 369.995 C 90.321 370.000,90.400 370.056,90.400 371.200 C 90.400 372.267,90.533 372.400,91.600 372.400 C 92.519 372.400,92.800 372.581,92.800 373.171 C 92.800 374.499,93.906 375.200,96.002 375.200 C 97.826 375.200,97.955 375.268,98.073 376.300 C 98.195 377.353,98.306 377.405,100.676 377.518 C 103.141 377.636,103.153 377.643,103.276 378.918 C 103.399 380.194,103.411 380.201,105.875 380.318 C 108.233 380.431,108.356 380.488,108.475 381.518 C 108.585 382.471,108.790 382.613,110.200 382.707 C 112.948 382.890,113.501 383.140,113.939 384.398 C 114.343 385.556,114.448 385.600,116.779 385.600 C 119.079 385.600,119.200 385.649,119.200 386.576 C 119.200 387.880,119.365 387.947,123.331 388.251 C 126.648 388.506,126.762 388.548,126.879 389.557 C 126.999 390.592,127.031 390.601,130.876 390.714 L 134.751 390.828 134.876 392.114 L 135.000 393.400 138.675 393.515 C 142.342 393.629,142.350 393.632,142.475 394.715 L 142.600 395.800 147.620 395.911 L 152.641 396.023 153.020 397.311 L 153.400 398.600 159.700 398.710 C 164.935 398.802,166.000 398.920,166.000 399.410 C 166.000 399.925,170.138 400.000,198.600 400.000 C 227.311 400.000,231.200 399.928,231.200 399.400 C 231.200 398.893,232.130 398.800,237.167 398.800 C 244.064 398.800,244.400 398.724,244.400 397.157 L 244.400 396.000 249.600 396.000 L 254.800 396.000 254.800 394.800 L 254.800 393.600 258.167 393.600 C 262.323 393.600,262.800 393.431,262.800 391.957 L 262.800 390.800 266.600 390.800 L 270.400 390.800 270.400 389.600 C 270.400 388.408,270.416 388.400,272.700 388.377 C 276.869 388.335,278.182 387.942,278.327 386.695 C 278.450 385.628,278.519 385.600,281.027 385.600 C 283.596 385.600,283.600 385.598,283.600 384.447 C 283.600 383.140,284.294 382.814,287.100 382.805 C 288.721 382.800,288.800 382.744,288.800 381.600 L 288.800 380.400 291.400 380.400 L 294.000 380.400 294.000 379.000 L 294.000 377.600 296.600 377.600 L 299.200 377.600 299.200 376.400 C 299.200 375.242,299.264 375.200,301.026 375.200 C 303.359 375.200,304.400 374.640,304.400 373.386 C 304.400 372.526,304.579 372.400,305.800 372.400 C 307.089 372.400,307.200 372.305,307.200 371.200 C 307.200 370.029,307.248 370.000,309.167 370.000 C 311.859 370.000,312.400 369.725,312.400 368.357 C 312.400 367.336,312.542 367.200,313.610 367.200 C 314.623 367.200,314.857 367.013,315.051 366.047 C 315.265 364.974,315.444 364.876,317.641 364.627 C 319.926 364.369,320.000 364.323,320.000 363.180 C 320.000 362.098,320.116 362.000,321.400 362.000 C 322.682 362.000,322.800 361.901,322.800 360.825 C 322.800 359.792,322.957 359.636,324.100 359.525 C 325.243 359.415,325.415 359.243,325.525 358.100 C 325.636 356.957,325.792 356.800,326.825 356.800 C 327.851 356.800,328.000 356.655,328.000 355.656 C 328.000 354.557,328.099 354.498,330.500 354.156 C 332.811 353.827,333.009 353.719,333.124 352.724 C 333.220 351.897,333.494 351.620,334.312 351.524 C 335.122 351.429,335.462 351.092,335.745 350.100 C 336.052 349.023,336.312 348.800,337.258 348.800 C 338.255 348.800,338.400 348.651,338.400 347.625 C 338.400 346.592,338.557 346.436,339.700 346.325 C 340.843 346.215,341.015 346.043,341.125 344.900 C 341.236 343.757,341.392 343.600,342.425 343.600 C 343.458 343.600,343.600 343.458,343.600 342.425 C 343.600 341.392,343.757 341.236,344.900 341.125 C 346.043 341.015,346.215 340.843,346.325 339.700 C 346.436 338.557,346.592 338.400,347.625 338.400 C 348.651 338.400,348.800 338.255,348.800 337.258 C 348.800 336.312,349.024 336.052,350.100 335.745 C 351.348 335.388,351.405 335.284,351.519 333.111 C 351.636 330.886,351.660 330.846,352.919 330.724 C 354.041 330.615,354.216 330.439,354.325 329.300 C 354.436 328.157,354.592 328.000,355.625 328.000 C 356.664 328.000,356.800 327.861,356.800 326.800 C 356.800 325.814,356.964 325.600,357.720 325.600 C 358.892 325.600,359.600 324.892,359.600 323.720 C 359.600 323.101,359.835 322.800,360.320 322.800 C 361.526 322.800,362.000 321.939,362.000 319.745 C 362.000 317.675,362.015 317.649,363.300 317.525 C 364.443 317.415,364.615 317.243,364.725 316.100 C 364.836 314.957,364.992 314.800,366.025 314.800 L 367.200 314.800 367.200 312.200 L 367.200 309.600 368.600 309.600 C 369.882 309.600,370.000 309.501,370.000 308.427 C 370.000 307.444,370.179 307.233,371.100 307.127 C 372.153 307.005,372.205 306.894,372.318 304.524 C 372.436 302.059,372.443 302.047,373.718 301.924 C 374.996 301.800,375.000 301.792,375.119 299.300 C 375.237 296.825,375.250 296.800,376.419 296.800 L 377.600 296.800 377.600 294.225 L 377.600 291.651 378.900 291.525 C 380.198 291.400,380.200 291.397,380.318 288.925 C 380.431 286.567,380.488 286.444,381.518 286.325 C 382.519 286.209,382.622 286.022,382.895 283.827 C 383.191 281.442,383.605 280.817,384.900 280.806 C 385.494 280.801,385.600 280.407,385.600 278.200 C 385.600 275.710,385.641 275.600,386.576 275.600 C 387.880 275.600,387.947 275.435,388.251 271.469 C 388.506 268.152,388.548 268.038,389.557 267.921 C 390.592 267.801,390.601 267.769,390.714 263.925 L 390.828 260.050 391.909 259.925 C 393.218 259.774,393.542 258.454,393.577 253.127 L 393.600 249.653 394.700 249.527 L 395.800 249.400 395.910 242.900 L 396.020 236.400 397.167 236.400 C 398.862 236.400,398.800 237.741,398.800 201.341 C 398.800 165.860,398.807 166.000,396.986 166.000 L 396.000 166.000 396.000 159.650 L 396.000 153.300 394.800 153.060 L 393.600 152.820 393.600 149.060 C 393.600 143.786,393.355 142.811,391.960 142.532 L 390.829 142.306 390.714 138.653 L 390.600 135.000 389.500 134.873 C 388.496 134.758,388.400 134.601,388.397 133.073 C 388.388 128.781,387.959 127.172,386.760 126.932 C 385.691 126.718,385.630 126.586,385.518 124.254 C 385.407 121.937,385.341 121.793,384.349 121.678 C 383.261 121.552,382.816 120.347,382.804 117.500 C 382.801 116.545,382.641 116.400,381.600 116.400 L 380.400 116.400 380.394 113.100 C 380.387 109.390,380.251 109.034,378.700 108.654 C 377.806 108.435,377.600 108.161,377.600 107.192 C 377.600 106.134,377.465 106.000,376.400 106.000 L 375.200 106.000 375.200 103.400 L 375.200 100.800 373.800 100.800 L 372.400 100.800 372.400 98.200 L 372.400 95.600 371.200 95.600 C 370.104 95.600,370.000 95.483,370.000 94.250 C 370.000 91.346,369.595 90.400,368.350 90.400 C 367.302 90.400,367.200 90.275,367.200 89.000 C 367.200 87.726,367.097 87.600,366.056 87.600 C 364.964 87.600,364.902 87.500,364.686 85.410 C 364.410 82.736,364.219 82.400,362.976 82.400 C 362.164 82.400,362.000 82.204,362.000 81.232 C 362.000 80.264,361.798 80.019,360.824 79.805 C 359.927 79.608,359.619 79.292,359.524 78.473 C 359.422 77.586,359.174 77.378,358.100 77.275 C 356.910 77.160,356.800 77.033,356.800 75.775 C 356.800 74.524,356.695 74.400,355.639 74.400 C 354.521 74.400,354.469 74.315,354.205 72.043 C 353.950 69.844,353.853 69.671,352.766 69.453 C 351.786 69.257,351.600 69.027,351.600 68.010 C 351.600 66.898,351.489 66.800,350.225 66.800 C 348.967 66.800,348.840 66.690,348.725 65.500 C 348.621 64.417,348.417 64.179,347.500 64.073 C 346.579 63.967,346.400 63.756,346.400 62.773 C 346.400 61.699,346.282 61.600,345.000 61.600 C 343.667 61.600,343.600 61.533,343.600 60.200 C 343.600 58.911,343.505 58.800,342.400 58.800 C 341.333 58.800,341.200 58.667,341.200 57.600 C 341.200 56.495,341.089 56.400,339.800 56.400 C 338.467 56.400,338.400 56.333,338.400 55.000 C 338.400 53.718,338.301 53.600,337.227 53.600 C 336.244 53.600,336.033 53.421,335.927 52.500 C 335.821 51.583,335.583 51.379,334.500 51.275 C 333.310 51.160,333.200 51.033,333.200 49.775 C 333.200 48.511,333.102 48.400,331.990 48.400 C 330.973 48.400,330.743 48.214,330.547 47.234 C 330.329 46.147,330.156 46.050,327.957 45.795 C 325.685 45.531,325.600 45.479,325.600 44.361 C 325.600 43.305,325.476 43.200,324.225 43.200 C 322.967 43.200,322.840 43.090,322.725 41.900 C 322.622 40.826,322.414 40.578,321.527 40.476 C 320.708 40.381,320.392 40.073,320.195 39.176 C 319.981 38.202,319.736 38.000,318.768 38.000 C 317.796 38.000,317.600 37.836,317.600 37.024 C 317.600 35.781,317.264 35.590,314.590 35.314 C 312.500 35.098,312.400 35.036,312.400 33.944 C 312.400 32.903,312.274 32.800,311.000 32.800 C 309.725 32.800,309.600 32.698,309.600 31.650 C 309.600 30.405,308.654 30.000,305.750 30.000 C 304.517 30.000,304.400 29.896,304.400 28.800 L 304.400 27.600 301.800 27.600 L 299.200 27.600 299.200 26.200 L 299.200 24.800 296.600 24.800 L 294.000 24.800 294.000 23.600 C 294.000 22.535,293.866 22.400,292.808 22.400 C 291.839 22.400,291.565 22.194,291.346 21.300 C 290.966 19.749,290.610 19.613,286.900 19.606 L 283.600 19.600 283.600 18.400 C 283.600 17.359,283.455 17.199,282.500 17.196 C 279.653 17.184,278.448 16.739,278.322 15.651 C 278.207 14.659,278.063 14.593,275.746 14.482 C 273.414 14.370,273.282 14.309,273.068 13.240 C 272.828 12.041,271.219 11.612,266.927 11.603 C 265.399 11.600,265.242 11.504,265.127 10.500 L 265.000 9.400 261.347 9.286 L 257.694 9.171 257.468 8.040 C 257.189 6.645,256.214 6.400,250.940 6.400 L 247.180 6.400 246.940 5.200 L 246.700 4.000 240.350 4.000 L 234.000 4.000 234.000 3.014 C 234.000 2.449,233.670 1.852,233.226 1.614 C 232.440 1.193,165.134 1.048,164.100 1.465 M274.010 142.626 C 274.541 144.022,274.541 227.178,274.010 228.574 L 273.620 229.600 209.224 229.600 L 144.828 229.600 144.314 228.700 C 143.904 227.983,143.800 219.243,143.800 185.600 C 143.800 151.957,143.904 143.217,144.314 142.500 L 144.828 141.600 209.224 141.600 L 273.620 141.600 274.010 142.626 M173.115 157.500 C 172.779 157.885,172.411 158.946,172.296 159.858 C 171.834 163.526,166.555 169.114,162.745 169.968 C 157.864 171.061,158.000 170.615,158.001 185.560 C 158.003 199.597,158.530 201.200,163.142 201.200 C 166.081 201.200,172.385 208.447,172.396 211.838 C 172.405 214.563,170.098 214.401,208.631 214.394 C 247.348 214.388,245.182 214.547,245.674 211.664 C 246.463 207.041,251.476 201.697,255.690 200.985 C 256.899 200.781,257.837 200.257,258.899 199.195 L 260.400 197.694 260.400 185.993 C 260.400 170.809,260.446 170.959,255.506 170.053 C 254.464 169.862,253.204 169.410,252.706 169.048 C 252.208 168.687,251.125 167.941,250.300 167.391 C 249.475 166.840,248.800 166.243,248.800 166.064 C 248.800 165.884,248.239 164.891,247.554 163.856 C 246.869 162.822,246.101 161.040,245.847 159.896 C 245.113 156.590,247.796 156.813,208.562 156.806 C 175.877 156.800,173.686 156.843,173.115 157.500 M215.364 164.782 C 216.225 164.982,217.422 165.509,218.024 165.955 C 218.627 166.400,219.570 166.878,220.121 167.016 C 221.440 167.347,227.460 173.388,227.793 174.715 C 227.936 175.285,228.417 176.262,228.861 176.885 C 230.553 179.262,230.878 190.474,229.337 193.358 C 228.972 194.041,228.265 195.413,227.766 196.407 C 225.620 200.677,217.898 206.380,214.221 206.410 C 213.550 206.415,212.190 206.607,211.200 206.836 C 204.950 208.280,192.941 202.802,190.770 197.517 C 190.472 196.792,189.834 195.613,189.350 194.897 C 186.830 191.159,187.004 180.881,189.677 175.678 C 191.396 172.330,196.042 167.200,197.354 167.200 C 197.650 167.200,198.394 166.805,199.008 166.323 C 201.200 164.598,210.709 163.702,215.364 164.782 M127.777 171.289 C 128.329 172.077,128.400 176.133,128.400 207.027 L 128.400 241.876 129.242 242.638 C 130.059 243.378,131.737 243.406,186.742 243.600 C 244.435 243.804,244.547 243.807,244.955 245.328 C 245.268 246.494,245.265 254.776,244.951 256.345 C 244.530 258.450,246.288 258.395,178.909 258.398 L 116.018 258.400 115.309 257.318 C 114.210 255.640,114.210 173.160,115.309 171.482 L 116.018 170.400 121.587 170.400 C 126.887 170.400,127.185 170.443,127.777 171.289 " stroke="none" fill="#ffffff" fill-rule="evenodd"></path><path id="path4" d="M144.314 142.500 C 143.904 143.217,143.800 151.957,143.800 185.600 C 143.800 219.243,143.904 227.983,144.314 228.700 L 144.828 229.600 209.224 229.600 L 273.620 229.600 274.010 228.574 C 274.541 227.178,274.541 144.022,274.010 142.626 L 273.620 141.600 209.224 141.600 L 144.828 141.600 144.314 142.500 M244.392 157.314 C 245.133 157.688,245.502 158.345,245.847 159.896 C 246.101 161.040,246.869 162.822,247.554 163.856 C 248.239 164.891,248.800 165.884,248.800 166.064 C 248.800 166.243,249.475 166.840,250.300 167.391 C 251.125 167.941,252.208 168.687,252.706 169.048 C 253.204 169.410,254.464 169.862,255.506 170.053 C 260.446 170.959,260.400 170.809,260.400 185.993 L 260.400 197.694 258.899 199.195 C 257.837 200.257,256.899 200.781,255.690 200.985 C 251.476 201.697,246.463 207.041,245.674 211.664 C 245.182 214.547,247.348 214.388,208.631 214.394 C 170.098 214.401,172.405 214.563,172.396 211.838 C 172.385 208.447,166.081 201.200,163.142 201.200 C 158.530 201.200,158.003 199.597,158.001 185.560 C 158.000 170.615,157.864 171.061,162.745 169.968 C 166.555 169.114,171.834 163.526,172.296 159.858 C 172.717 156.519,169.386 156.799,208.562 156.806 C 235.708 156.810,243.619 156.923,244.392 157.314 M201.962 164.950 C 200.950 165.222,199.621 165.840,199.008 166.323 C 198.394 166.805,197.650 167.200,197.354 167.200 C 196.042 167.200,191.396 172.330,189.677 175.678 C 187.004 180.881,186.830 191.159,189.350 194.897 C 189.834 195.613,190.472 196.792,190.770 197.517 C 192.941 202.802,204.950 208.280,211.200 206.836 C 212.190 206.607,213.550 206.415,214.221 206.410 C 217.898 206.380,225.620 200.677,227.766 196.407 C 228.265 195.413,228.972 194.041,229.337 193.358 C 230.878 190.474,230.553 179.262,228.861 176.885 C 228.417 176.262,227.936 175.285,227.793 174.715 C 227.460 173.388,221.440 167.347,220.121 167.016 C 219.570 166.878,218.627 166.400,218.024 165.955 C 215.909 164.391,206.271 163.788,201.962 164.950 M115.309 171.482 C 114.210 173.160,114.210 255.640,115.309 257.318 L 116.018 258.400 178.909 258.398 C 246.288 258.395,244.530 258.450,244.951 256.345 C 245.265 254.776,245.268 246.494,244.955 245.328 C 244.547 243.807,244.435 243.804,186.742 243.600 C 131.737 243.406,130.059 243.378,129.242 242.638 L 128.400 241.876 128.400 207.027 C 128.400 176.133,128.329 172.077,127.777 171.289 C 127.185 170.443,126.887 170.400,121.587 170.400 L 116.018 170.400 115.309 171.482 " stroke="none" fill="#2f81ff" fill-rule="evenodd"></path><path id="path5" d="M144.314 142.500 C 143.904 143.217,143.800 151.957,143.800 185.600 C 143.800 219.243,143.904 227.983,144.314 228.700 L 144.828 229.600 209.224 229.600 L 273.620 229.600 274.010 228.574 C 274.541 227.178,274.541 144.022,274.010 142.626 L 273.620 141.600 209.224 141.600 L 144.828 141.600 144.314 142.500 M244.392 157.314 C 245.133 157.688,245.502 158.345,245.847 159.896 C 246.101 161.040,246.869 162.822,247.554 163.856 C 248.239 164.891,248.800 165.884,248.800 166.064 C 248.800 166.243,249.475 166.840,250.300 167.391 C 251.125 167.941,252.208 168.687,252.706 169.048 C 253.204 169.410,254.464 169.862,255.506 170.053 C 260.446 170.959,260.400 170.809,260.400 185.993 L 260.400 197.694 258.899 199.195 C 257.837 200.257,256.899 200.781,255.690 200.985 C 251.476 201.697,246.463 207.041,245.674 211.664 C 245.182 214.547,247.348 214.388,208.631 214.394 C 170.098 214.401,172.405 214.563,172.396 211.838 C 172.385 208.447,166.081 201.200,163.142 201.200 C 158.530 201.200,158.003 199.597,158.001 185.560 C 158.000 170.615,157.864 171.061,162.745 169.968 C 166.555 169.114,171.834 163.526,172.296 159.858 C 172.717 156.519,169.386 156.799,208.562 156.806 C 235.708 156.810,243.619 156.923,244.392 157.314 M201.962 164.950 C 200.950 165.222,199.621 165.840,199.008 166.323 C 198.394 166.805,197.650 167.200,197.354 167.200 C 196.042 167.200,191.396 172.330,189.677 175.678 C 187.004 180.881,186.830 191.159,189.350 194.897 C 189.834 195.613,190.472 196.792,190.770 197.517 C 192.941 202.802,204.950 208.280,211.200 206.836 C 212.190 206.607,213.550 206.415,214.221 206.410 C 217.898 206.380,225.620 200.677,227.766 196.407 C 228.265 195.413,228.972 194.041,229.337 193.358 C 230.878 190.474,230.553 179.262,228.861 176.885 C 228.417 176.262,227.936 175.285,227.793 174.715 C 227.460 173.388,221.440 167.347,220.121 167.016 C 219.570 166.878,218.627 166.400,218.024 165.955 C 215.909 164.391,206.271 163.788,201.962 164.950 M115.309 171.482 C 114.210 173.160,114.210 255.640,115.309 257.318 L 116.018 258.400 178.909 258.398 C 246.288 258.395,244.530 258.450,244.951 256.345 C 245.265 254.776,245.268 246.494,244.955 245.328 C 244.547 243.807,244.435 243.804,186.742 243.600 C 131.737 243.406,130.059 243.378,129.242 242.638 L 128.400 241.876 128.400 207.027 C 128.400 176.133,128.329 172.077,127.777 171.289 C 127.185 170.443,126.887 170.400,121.587 170.400 L 116.018 170.400 115.309 171.482 " stroke="none" fill="#2f81ff" fill-rule="evenodd"></path></g></svg>