<?xml version="1.0" encoding="UTF-8"?>
<svg width="37px" height="37px" viewBox="0 0 37 37" version="1.1" xmlns="http://www.w3.org/2000/svg" xmlns:xlink="http://www.w3.org/1999/xlink">
    <!-- Generator: Sketch 53.2 (72643) - https://sketchapp.com -->
    <title>qualify icon</title>
    <desc>Created with Sketch.</desc>
    <g id="Web" stroke="none" stroke-width="1" fill="none" fill-rule="evenodd">
        <g id="-L2O-w2s4--summary-1" transform="translate(-590.000000, -204.000000)" fill-rule="nonzero">
            <g id="Group-39-Copy-2" transform="translate(471.000000, 205.000000)">
                <g id="Group-30">
                    <g id="qualify-icon" transform="translate(120.000000, 0.000000)">
                        <g id="Group-12">
                            <circle id="Oval-2-Copy-4" stroke="#FFFFFF" stroke-width="1.5" fill="#103F86" cx="17.5" cy="17.5" r="17.5"></circle>
                            <g id="prize" transform="translate(10.000000, 8.000000)" fill="#FFFFFF">
                                <path d="M14.8601127,7.50761242 C15.1109719,6.85870277 15.0207867,6.13032534 14.6188992,5.55916309 L14.3353251,5.15606759 C14.224634,4.9988524 14.1537404,4.81543468 14.1302666,4.62566483 L14.0700982,4.13952848 C13.9847696,3.45052101 13.5598805,2.84667177 12.9333731,2.5241689 L12.4914183,2.29661712 C12.3188725,2.20781965 12.1691933,2.07766718 12.0584348,1.92038583 L11.7749281,1.51742266 C11.3730406,0.946260412 10.7107154,0.605230499 10.0031965,0.605230499 L9.50404116,0.605230499 C9.30916823,0.605230499 9.11496983,0.558251213 8.94242397,0.469453746 L8.50046915,0.241901967 C7.87409668,-0.0806009041 7.12603823,-0.0806670721 6.49953085,0.241901967 L6.05757603,0.469453746 C5.88496272,0.558251213 5.69076432,0.605230499 5.49595884,0.605230499 L4.99680351,0.605230499 C4.28935203,0.605230499 3.62695942,0.946260412 3.22507194,1.51742266 L2.9415652,1.92031966 C2.83080669,2.07766718 2.68112754,2.20775349 2.50858169,2.29661712 L2.06662687,2.5241689 C1.44018694,2.84667177 1.01523038,3.45052101 0.929901804,4.13959465 L0.869733352,4.62559867 C0.846259561,4.81536851 0.775366015,4.99878623 0.664607496,5.15613375 L0.381100764,5.55909692 C-0.0207867232,6.13025917 -0.110971948,6.85870277 0.139887328,7.50761242 L0.316885107,7.96529653 C0.385957411,8.14408249 0.410105736,8.33881494 0.386564491,8.52865095 L0.326396039,9.01465497 C0.24106746,9.70359627 0.506361769,10.3896923 1.03600604,10.8498908 L1.40963054,11.1745773 C1.55546484,11.301289 1.6690564,11.4627389 1.73819616,11.6415249 L1.91519394,12.0992752 C2.10129793,12.5807798 2.45785672,12.9725605 2.909997,13.2106992 L0.959986031,17.876801 C0.88821559,18.0485731 0.927878202,18.2458199 1.06089635,18.3779575 C1.19398195,18.5101611 1.39452097,18.5515161 1.5704395,18.4832308 L3.7211244,17.6492492 L4.65616373,19.7240794 C4.73184647,19.8920138 4.90128947,20 5.08793309,20 C5.0900916,20 5.09225011,20 5.09440862,20 C5.28368292,19.9974856 5.45305846,19.8843383 5.52489635,19.7125662 L7.49993255,14.9865824 L9.47496874,19.7125662 C9.54673918,19.8843383 9.71618218,19.9974856 9.90545648,20 C9.90754753,20 9.90970604,20 9.91193201,20 C10.0986431,20 10.2680186,19.8919476 10.3437014,19.7240794 L11.2787407,17.6492492 L13.4294256,18.4832308 C13.6052767,18.55145 13.806018,18.510095 13.9389687,18.3779575 C14.0719869,18.2458199 14.111717,18.0485731 14.0398791,17.876801 L12.0898681,13.2106992 C12.5420084,12.9725605 12.8985672,12.5807798 13.0846712,12.0992752 L13.2616689,11.6415249 C13.3308087,11.4627389 13.4444003,11.3012228 13.5902346,11.1745111 L13.9638591,10.8498247 C14.4935033,10.38956 14.7587302,9.7035301 14.6734691,9.01465497 L14.6133006,8.52851862 C14.5897594,8.33874877 14.6139077,8.14395016 14.6829125,7.96529653 L14.8601127,7.50761242 Z M13.3378238,10.1565825 L12.9641993,10.4812689 C12.7043688,10.7070341 12.501941,10.9946664 12.3788385,11.3131331 L12.2018408,11.7709495 C12.060998,12.1352044 11.7467325,12.4083459 11.3610339,12.5015767 L10.876381,12.6187602 C10.5393837,12.700213 10.2239041,12.8626555 9.9640735,13.0884869 L9.590449,13.4131733 C9.29311431,13.6714932 8.88529092,13.7700835 8.49986207,13.6767867 L8.01520924,13.5596693 C7.67821194,13.4781503 7.32185551,13.4782165 6.98485822,13.5596693 L6.50013793,13.6768528 C6.11450672,13.7701497 5.70688569,13.6714932 5.40961846,13.4131733 L5.03599395,13.0884869 C4.77609592,12.8626555 4.46068372,12.7002792 4.12368642,12.6187602 L3.63896613,12.5015767 C3.25333492,12.4083459 2.93906943,12.1352044 2.79822668,11.7709495 L2.6212289,11.3131331 C2.49812641,10.9946664 2.29569869,10.7070341 2.03586811,10.481335 L1.66224361,10.1566486 C1.36497638,9.89832872 1.21610667,9.51316475 1.2639986,9.12647891 L1.32416706,8.64040872 C1.36598818,8.30242254 1.32302035,7.9554375 1.19998531,7.63697088 L1.02292007,7.1792206 C0.882144782,6.81496572 0.932734848,6.40604743 1.158434,6.08539726 L1.44180582,5.68250026 C1.63910708,5.40227874 1.76544734,5.07547495 1.80733592,4.73729026 L1.86750437,4.25128624 C1.9153963,3.86446807 2.1539116,3.52548936 2.50554629,3.34445369 L2.94750111,3.11690192 C3.2548189,2.95869421 3.52152973,2.72697384 3.71883098,2.44661999 L4.00233772,2.04372299 C4.22796941,1.72307283 4.59970522,1.53164878 4.99687097,1.53164878 L5.49602629,1.53164878 C5.8431416,1.53164878 6.18904275,1.44801242 6.49649544,1.28973854 L6.93845026,1.06218676 C7.29008495,0.881151092 7.7099825,0.88121726 8.06168464,1.06218676 L8.50363946,1.28973854 C8.81109216,1.44801242 9.15706076,1.53164878 9.50410862,1.53164878 L10.0032639,1.53164878 C10.4004297,1.53164878 10.7721655,1.72307283 10.9977972,2.04365683 L11.2813039,2.44668616 C11.4786052,2.72697384 11.745316,2.95869421 12.0526338,3.11690192 L12.4945886,3.34445369 C12.8462233,3.52548936 13.0847386,3.86446807 13.1326305,4.25122008 L13.192799,4.73729026 C13.2346876,5.07540878 13.3610278,5.40221258 13.5582616,5.68236792 L13.8417684,6.08539726 C14.0674001,6.40604743 14.1179901,6.81489955 13.9772148,7.17908826 L13.8000821,7.63697088 C13.6771146,7.95537133 13.6341467,8.30235637 13.6759679,8.64027638 L13.7361363,9.12641274 C13.7839608,9.51316475 13.6350911,9.89826255 13.3378238,10.1565825 L13.3378238,10.1565825 Z M11.2040698,16.6243067 C10.9683875,16.5328625 10.701137,16.6403194 10.5986078,16.867805 L9.92832319,18.3551295 L8.35632119,14.5936106 C9.01878125,14.7271376 9.70829012,14.5484178 10.2166191,14.1065479 L10.5902436,13.7818614 C10.7360779,13.6550835 10.9132106,13.563904 11.1024849,13.5181819 L11.1890951,13.4972067 L12.7457852,17.2220685 L11.2040698,16.6243067 L11.2040698,16.6243067 Z M4.40145961,16.867805 C4.29893041,16.6403194 4.03147759,16.5328625 3.7959977,16.6243067 L2.25434974,17.2221347 L3.81103981,13.4972728 L3.89765001,13.5181819 C4.08692431,13.563904 4.26405699,13.6551497 4.40989129,13.7818614 L4.7835158,14.1064817 C5.18162589,14.4525404 5.69089923,14.6376785 6.21110002,14.6376123 C6.35524798,14.6376123 6.50013793,14.622526 6.64381372,14.5935444 L5.07174427,18.3551295 L4.40145961,16.867805 L4.40145961,16.867805 Z" id="Shape"></path>
                                <path d="M7.5,12 C9.98128102,12 12,9.98128102 12,7.5 C12,5.01871898 9.98128102,3 7.5,3 C5.01871898,3 3,5.01871898 3,7.5 C3,9.98128102 5.01871898,12 7.5,12 Z M7.5,3.82072375 C9.52874282,3.82072375 11.1793349,5.47125718 11.1793349,7.50005862 C11.1793349,9.52886006 9.52880144,11.1793935 7.5,11.1793935 C5.47119856,11.1793935 3.82066513,9.52886006 3.82066513,7.50005862 C3.82066513,5.47125718 5.47125718,3.82072375 7.5,3.82072375 Z" id="Shape"></path>
                            </g>
                        </g>
                    </g>
                </g>
            </g>
        </g>
    </g>
</svg>