<?xml version="1.0" encoding="UTF-8"?>
<svg width="37px" height="37px" viewBox="0 0 37 37" version="1.1" xmlns="http://www.w3.org/2000/svg" xmlns:xlink="http://www.w3.org/1999/xlink">
    <!-- Generator: Sketch 53.2 (72643) - https://sketchapp.com -->
    <title>secure stage 2</title>
    <desc>Created with Sketch.</desc>
    <g id="Web" stroke="none" stroke-width="1" fill="none" fill-rule="evenodd">
        <g id="-L2O-w2s4--summary-1-Copy" transform="translate(-380.000000, -354.000000)" fill-rule="nonzero">
            <g id="secure-stage-2" transform="translate(381.000000, 355.000000)">
                <circle id="Oval-2-Copy-4" stroke="#FFFFFF" stroke-width="1.5" fill="#FFFFFF" cx="17.5" cy="17.5" r="17.5"></circle>
                <g id="shield" transform="translate(9.000000, 8.000000)" fill="#2F81FF">
                    <path d="M16.9800477,5.45551714 L16.9794384,5.43998171 C16.9707569,5.24822604 16.9649692,5.04535194 16.9614661,4.81963159 C16.9451692,3.7189023 16.0701602,2.80840561 14.9692786,2.74687322 C12.6739983,2.61878223 10.8983927,1.87034117 9.38125356,0.391583654 L9.3683074,0.379246683 C8.873459,-0.0744785596 8.12699793,-0.0744785596 7.63199719,0.379246683 L7.61905103,0.391583654 C6.10191192,1.87034117 4.32630625,2.61878223 2.03102603,2.74702552 C0.930296732,2.80840561 0.055135445,3.7189023 0.0388385275,4.81978389 C0.0354877339,5.04398114 0.0295477156,5.24685528 0.0208661743,5.43998171 L0.0199523463,5.47607868 C-0.0246738624,7.81659439 -0.0801139817,10.7294832 0.894352064,13.3733963 C1.43017132,14.8273276 2.24166788,16.0911787 3.30614787,17.130071 C4.51851886,18.3131988 6.10648114,19.2524817 8.02586548,19.9217227 C8.0883117,19.9435027 8.15319489,19.9611704 8.21929651,19.9744212 C8.31250895,19.9930028 8.40633062,20.0022936 8.5001523,20.0022936 C8.59397397,20.0022936 8.68794794,19.9930028 8.78100809,19.9744212 C8.84710974,19.9611704 8.91244983,19.9433504 8.97520069,19.9214181 C10.8923004,19.2509587 12.4785873,18.3112188 13.6898921,17.1282432 C14.7539152,16.0890464 15.5654118,14.8248907 16.1016879,13.3706548 C17.0798093,10.7188217 17.0245216,7.80044977 16.9800477,5.45551714 Z M15.0026341,12.9653634 C13.9748602,15.751989 11.8768187,17.6657379 8.58864322,18.8156626 C8.57691549,18.8196226 8.56442626,18.8231257 8.55148006,18.825715 C8.51751542,18.8324165 8.48294151,18.8324165 8.44851994,18.8255626 C8.43572604,18.8229734 8.42323681,18.8196226 8.41166141,18.8156626 C5.1199828,17.6678702 3.02057053,15.7551874 1.99355826,12.9684095 C1.09539851,10.5313306 1.14626937,7.85741291 1.19120018,5.49846795 L1.19150481,5.48536949 C1.20064329,5.28264765 1.2067356,5.0703304 1.21008636,4.83699472 C1.21739714,4.34823859 1.60669616,3.94386111 2.09636611,3.91659799 C3.39524799,3.84409942 4.53633888,3.59309598 5.58482655,3.1492707 C6.63194346,2.7060547 7.56193556,2.08128762 8.42765373,1.23932948 C8.47167075,1.20216635 8.52878619,1.20201405 8.57265086,1.23932948 C9.43852134,2.08128762 10.3685135,2.7060547 11.4154781,3.1492707 C12.4639657,3.59309598 13.6050566,3.84409942 14.9040908,3.91659799 C15.3937608,3.94386111 15.7830598,4.34823859 15.7902182,4.83714701 C15.7937213,5.0717012 15.7998136,5.28401841 15.8089521,5.48536949 C15.8537306,7.84705597 15.903383,10.523106 15.0026341,12.9653634 Z" id="Shape"></path>
                    <path d="M8.4998477,5.04580883 C5.75647758,5.04580883 3.52470974,7.27772901 3.52470974,10.0209468 C3.52470974,12.764317 5.75647758,14.9962371 8.4998477,14.9962371 C11.2430655,14.9962371 13.4749857,12.764317 13.4749857,10.0209468 C13.4749857,7.27772901 11.2430655,5.04580883 8.4998477,5.04580883 Z M8.4998477,13.8246846 C6.40241542,13.8246846 4.69610987,12.1183791 4.69610987,10.0209468 C4.69610987,7.92351456 6.40241542,6.217209 8.4998477,6.217209 C10.5971276,6.217209 12.3034332,7.92351456 12.3034332,10.0209468 C12.3034332,12.1183791 10.5971276,13.8246846 8.4998477,13.8246846 Z" id="Shape"></path>
                    <path d="M9.92971439,8.47639226 L7.61889873,10.7872079 L6.99169473,10.160004 C6.76292826,9.93123745 6.39205849,9.93123745 6.16329198,10.160004 C5.93467781,10.3887704 5.93467781,10.7596402 6.16329198,10.9882544 L7.20477351,12.0297359 C7.31915676,12.1441191 7.46902775,12.2012346 7.61889873,12.2012346 C7.76876972,12.2012346 7.91864071,12.1441191 8.03302396,12.0297359 L10.7581171,9.30464271 C10.9867313,9.07587621 10.9867313,8.70500643 10.7581171,8.47639226 C10.5293506,8.2474735 10.1584809,8.2474735 9.92971439,8.47639226 Z" id="Path"></path>
                </g>
            </g>
        </g>
    </g>
</svg>