<?xml version="1.0" encoding="utf-8"?>
<!-- Generator: Adobe Illustrator 23.0.2, SVG Export Plug-In . SVG Version: 6.00 Build 0)  -->
<svg version="1.1" id="Layer_1" xmlns="http://www.w3.org/2000/svg" xmlns:xlink="http://www.w3.org/1999/xlink" x="0px" y="0px"
	 viewBox="0 0 815 458" style="enable-background:new 0 0 815 458;" xml:space="preserve">
<style type="text/css">
	.st0{fill:#FFDA29;}
	.st1{fill:#646363;}
</style>
<g>
	<g>
		<circle class="st0" cx="229.07" cy="229.07" r="172.07"/>
		<g>
			<path class="st1" d="M327.84,296.72c-8.15,2.11-16.23,3.17-24.23,3.17c-11.92,0-20.83-3.21-26.72-9.62
				c-5.89-6.41-8.83-15.29-8.83-26.61v-59.79h-21.52v-23.32h21.52v-29.89l28.3-7.02v36.91h29.67v23.32h-29.67v57.3
				c0,4.53,1.05,7.81,3.17,9.85c2.11,2.04,5.43,3.05,9.96,3.05c3.02,0,5.85-0.07,8.5-0.22c2.63-0.15,5.92-0.45,9.85-0.91V296.72z"/>
			<path class="st1" d="M413.66,206.82c-3.47-0.76-6.72-1.13-9.74-1.13c-9.96,0-17.51,3.17-22.65,9.51
				c-5.13,6.34-7.69,14.26-7.69,23.78v59.33h-28.54V180.55h24l2.49,17.66c2.72-6.79,7.21-11.7,13.48-14.72
				c6.26-3.02,12.86-4.53,19.81-4.53c2.87,0,5.82,0.23,8.83,0.68V206.82z"/>
			<path class="st1" d="M528.02,296.94c-2.42,1.06-4.49,1.85-6.23,2.38c-1.74,0.53-4.34,0.79-7.81,0.79
				c-6.19,0-10.95-1.66-14.26-4.99c-3.32-3.31-5.21-7.17-5.67-11.55c-2.72,4.84-7.24,8.99-13.58,12.45
				c-6.34,3.47-13.74,5.21-22.19,5.21c-7.1,0-13.29-1.02-18.58-3.05c-5.28-2.04-9.7-4.76-13.25-8.15c-3.55-3.4-6.23-7.33-8.04-11.78
				c-1.81-4.45-2.72-9.09-2.72-13.93c0-5.58,1.02-10.56,3.06-14.94c2.04-4.38,4.86-8.16,8.49-11.33s7.85-5.62,12.69-7.36
				c4.83-1.73,10.04-2.83,15.62-3.28l34.65-2.49v-7.25c0-5.58-1.33-10.08-3.97-13.47c-2.64-3.4-7.96-5.1-15.96-5.1
				c-6.65,0-11.81,1.44-15.51,4.3c-3.71,2.87-5.7,7.02-6,12.45h-27.41c0.46-6.64,2.01-12.37,4.65-17.21
				c2.64-4.83,6.15-8.79,10.53-11.89c4.38-3.09,9.43-5.4,15.17-6.91c5.73-1.51,11.92-2.26,18.57-2.26c10.11,0,19.14,1.78,27.06,5.32
				c7.93,3.55,13.62,9.78,17.09,18.68c1.51,3.78,2.46,7.7,2.84,11.78c0.37,4.07,0.56,8.08,0.56,12v43.71c0,2.72,0.49,4.64,1.47,5.77
				c0.98,1.14,2.68,1.7,5.1,1.7c1.2,0,2.04-0.07,2.49-0.22c0.45,0,0.82-0.07,1.13-0.22V296.94z M490.21,245.99l-29.89,2.26
				c-4.38,0.3-8.31,1.74-11.78,4.3c-3.47,2.57-5.21,6.26-5.21,11.1c0,4.53,1.7,8.11,5.1,10.75c3.4,2.64,7.28,3.96,11.67,3.96
				c8.91,0,16.15-2.3,21.73-6.91c5.58-4.6,8.38-11.28,8.38-20.03V245.99z"/>
			<path class="st1" d="M641.02,256.64c-0.3,4.68-1.2,9.24-2.72,13.69c-1.5,4.45-3.62,8.42-6.34,11.89
				c-4.08,5.13-9.55,9.51-16.42,13.13c-6.87,3.62-14.82,5.43-23.89,5.43c-9.06,0-17.13-1.85-24.23-5.55
				c-7.1-3.71-12.69-8.05-16.76-13.02c-4.39-5.58-7.63-12.01-9.75-19.25c-2.11-7.24-3.16-15.17-3.16-23.78
				c0-8.6,1.05-16.53,3.16-23.78c2.12-7.24,5.36-13.66,9.75-19.25c4.07-4.98,9.65-9.32,16.76-13.02c7.09-3.7,15.17-5.55,24.23-5.55
				c9.06,0,17.02,1.81,23.89,5.43c6.87,3.63,12.34,8.01,16.42,13.13c2.72,3.48,4.84,7.44,6.34,11.89c1.51,4.46,2.42,9.02,2.72,13.7
				h-27.85c-0.16-2.11-0.53-4.08-1.14-5.89c-0.6-1.81-1.35-3.47-2.26-4.98c-1.66-2.57-4-4.68-7.02-6.34
				c-3.02-1.66-6.72-2.49-11.1-2.49c-3.93,0-7.28,0.68-10.07,2.04c-2.8,1.36-5.17,3.1-7.13,5.21c-3.48,3.78-5.67,8.3-6.57,13.59
				c-0.91,5.29-1.35,10.72-1.35,16.3c0,5.59,0.45,10.98,1.35,16.19c0.91,5.21,3.09,9.7,6.57,13.47c1.96,2.12,4.33,3.89,7.13,5.33
				c2.79,1.43,6.14,2.15,10.07,2.15c4.38,0,8.08-0.83,11.1-2.49c3.02-1.66,5.36-3.77,7.02-6.34c0.91-1.51,1.66-3.17,2.26-4.99
				c0.61-1.81,0.98-3.77,1.14-5.88H641.02z"/>
			<path class="st1" d="M759.01,240.33c-0.16,1.06-0.23,2.04-0.23,2.95v4.98h-78.8c-0.16,4.53,0.52,8.83,2.04,12.91
				c1.5,4.07,3.7,7.47,6.56,10.18c2.12,1.97,4.56,3.67,7.37,5.1c2.79,1.44,6.15,2.16,10.07,2.16c4.08,0,7.44-0.42,10.08-1.25
				c2.63-0.83,5.01-2.3,7.13-4.42c2.72-2.72,4.6-6.04,5.66-9.96h27.18c-0.3,3.47-1.47,7.28-3.51,11.44
				c-2.04,4.15-4.19,7.58-6.45,10.31c-4.99,5.88-10.95,10.11-17.89,12.68c-6.95,2.57-14.2,3.85-21.74,3.85
				c-8.16,0-15.22-1.32-21.17-3.96c-5.97-2.64-11.29-6.15-15.97-10.53c-5.88-5.74-10.38-12.6-13.47-20.61
				c-3.1-8-4.64-16.82-4.64-26.49c0-9.51,1.39-18.3,4.19-26.38c2.79-8.08,7.05-14.98,12.79-20.72c4.38-4.53,9.7-8.15,15.96-10.87
				c6.26-2.72,13.48-4.07,21.63-4.07c8.76,0,16.91,1.78,24.46,5.32c7.54,3.55,13.73,9.02,18.57,16.42
				c4.38,6.49,7.17,12.94,8.38,19.36C758.4,225.12,759.01,232.33,759.01,240.33z M730.69,227.65c-0.15-8.61-2.57-15.47-7.24-20.61
				c-1.96-2.11-4.42-3.77-7.36-4.98c-2.95-1.21-6.46-1.81-10.53-1.81c-4.39,0-8.23,0.83-11.55,2.49c-3.32,1.67-6.04,3.85-8.16,6.57
				c-2.11,2.57-3.62,5.29-4.53,8.15c-0.91,2.87-1.44,6.26-1.59,10.19H730.69z"/>
		</g>
	</g>
</g>
</svg>
