<?xml version="1.0" encoding="UTF-8"?>
<svg width="28px" height="23px" viewBox="0 0 28 23" version="1.1" xmlns="http://www.w3.org/2000/svg" xmlns:xlink="http://www.w3.org/1999/xlink">
    <!-- Generator: Sketch 60.1 (88133) - https://sketch.com -->
    <title>W</title>
    <desc>Created with Sketch.</desc>
    <g id="W" stroke="none" stroke-width="1" fill="none" fill-rule="evenodd">
        <g id="Group-10-Copy-5" transform="translate(1.000000, 1.000000)">
            <g id="Group-14">
                <g id="Group-13" transform="translate(3.965559, 0.000000)">
                    <g id="Group-11-Copy-2" transform="translate(9.461983, 0.000000)" fill="#2F81FF" fill-rule="nonzero">
                        <path d="M6.2177659,1.88843189 C7.11437377,0.154692573 9.2105238,-0.504738302 10.899648,0.41555181 C12.5887722,1.33584192 13.2312337,3.48735788 12.3346258,5.2210972 L6.52171814,16.4613137 C5.62511027,18.195053 3.52896024,18.8544839 1.83983602,17.9341938 C0.150711799,17.0139037 -0.491749643,14.8623877 0.404858228,13.1286484 L6.2177659,1.88843189 Z" id="Path-2-Copy-6"></path>
                    </g>
                    <g id="Group-11-Copy" transform="translate(0.000000, 10.305887)"></g>
                    <g id="Group-11-Copy-3" transform="translate(9.307014, 7.187280)" fill="#0E3570" fill-rule="nonzero">
                        <path d="M3.572,0.001 L6.67960555,6.1556728 C7.07065904,6.93055112 7.15664401,7.78479735 6.98227237,8.5740139 L6.5246163,9.45639633 C5.91234471,10.6398694 4.74095225,11.322787 3.52157662,11.3444114 C2.29854218,11.3130271 1.12928214,10.6173299 0.527179895,9.42425535 L0.0773001405,8.53370844 C-0.087798594,7.74407422 0.00711176267,6.89269235 0.405038141,6.12353183 L3.572,0.001 Z" id="Combined-Shape"></path>
                    </g>
                </g>
                <g id="Group-11" transform="translate(0.000000, 2.912380)" fill="#FFFFFF" fill-rule="nonzero">
                    <path d="M0.395300446,8.66616504 C-0.484308843,6.92483517 0.179743734,4.78227508 1.87850339,3.88062314 C3.57726305,2.97897121 5.66744406,3.65966467 6.54705335,5.40099454 L10.5692733,13.3636342 C11.4488826,15.1049641 10.78483,17.2475242 9.08607038,18.1491761 C7.38731072,19.050828 5.29712971,18.3701346 4.41752042,16.6288047 L0.395300446,8.66616504 Z" id="Path-2-Copy-4"></path>
                    <path d="M10.3138993,1.89332855 C11.2108075,0.161295553 13.3076597,-0.497486319 14.9973498,0.421898057 C16.6870398,1.34128243 17.3297165,3.4906809 16.4328083,5.2227139 L10.6179533,16.451868 C9.72104512,18.183901 7.62419291,18.8426828 5.93450284,17.9232985 C4.24481278,17.0039141 3.60213612,14.8545156 4.49904435,13.1224826 L10.3138993,1.89332855 Z" id="Path-2-Copy-6"></path>
                </g>
                <path d="M0.388587131,11.57539 C-0.490989033,9.83181771 0.173038537,7.68649849 1.87173422,6.78368543 C3.5704299,5.88087237 5.6605322,6.56244241 6.54010837,8.30601472 L10.5621769,16.2789084 C11.441753,18.0224808 10.7777255,20.1678 9.07902979,21.070613 C7.3803341,21.9734261 5.2902318,21.2918561 4.41065564,19.5482837 L0.388587131,11.57539 Z" id="Path-2-Copy-4" fill="#FFFFFF" fill-rule="nonzero"></path>
                <path d="M0.388587131,11.57539 C-0.490989033,9.83181771 0.173038537,7.68649849 1.87173422,6.78368543 C3.5704299,5.88087237 5.6605322,6.56244241 6.54010837,8.30601472 L10.5621769,16.2789084 C11.441753,18.0224808 10.7777255,20.1678 9.07902979,21.070613 C7.3803341,21.9734261 5.2902318,21.2918561 4.41065564,19.5482837 L0.388587131,11.57539 Z" id="Path" fill="#2F81FF" fill-rule="nonzero"></path>
                <path d="M10.3259033,4.80293675 C11.2220863,3.06724639 13.3172429,2.40707343 15.0055666,3.32839918 C16.6938903,4.24972493 17.3360473,6.40366206 16.4398643,8.13935242 L10.6297115,19.392218 C9.73352857,21.1279083 7.63837196,21.7880813 5.95004825,20.8667555 C4.26172454,19.9454298 3.61956757,17.7914926 4.51575052,16.0558023 L10.3259033,4.80293675 Z" id="Path-2-Copy-6" fill="#FFFFFF" fill-rule="nonzero"></path>
                <path d="M10.3259033,4.80293675 C11.2220863,3.06724639 13.3172429,2.40707343 15.0055666,3.32839918 C16.6938903,4.24972493 17.3360473,6.40366206 16.4398643,8.13935242 L10.6297115,19.392218 C9.73352857,21.1279083 7.63837196,21.7880813 5.95004825,20.8667555 C4.26172454,19.9454298 3.61956757,17.7914926 4.51575052,16.0558023 L10.3259033,4.80293675 Z" id="Path" fill="#2F81FF" fill-rule="nonzero"></path>
                <path d="M7.53255906,10.3053437 L10.6354477,16.4646148 C11.0259323,17.239946 11.1117922,18.0946916 10.9376742,18.8843695 L10.4806839,19.7672677 C9.86967317,20.9507155 8.70103088,21.6339216 7.48422454,21.6563464 C6.26202953,21.6257419 5.09352587,20.9295301 4.49197206,19.7351079 L4.04274675,18.8440405 C3.87788819,18.0539447 3.97266048,17.2020651 4.37000798,16.432455 L7.53255906,10.3053437 Z" id="Combined-Shape" fill="#0E3570" fill-rule="nonzero"></path>
            </g>
        </g>
    </g>
</svg>