<svg xmlns="http://www.w3.org/2000/svg" xmlns:xlink="http://www.w3.org/1999/xlink" width="110" height="27" viewBox="0 0 110 27">
    <defs>
        <path id="a" d="M.048.034h11.431V13.61H.048z"/>
    </defs>
    <g fill="none" fill-rule="evenodd">
        <path fill="#000" d="M59.702 17.15c-1.863 0-3.377-1.619-3.377-3.609 0-1.989 1.514-3.607 3.377-3.607 1.862 0 3.377 1.618 3.377 3.607 0 1.99-1.515 3.61-3.377 3.61m0-10.445c-3.627 0-6.568 3.06-6.568 6.835 0 3.776 2.941 6.837 6.568 6.837 3.626 0 6.567-3.06 6.567-6.837 0-3.775-2.94-6.835-6.567-6.835M18.474 7.084h-2.418a.551.551 0 0 0-.49.362l-1.998 6.262-3.43-6.667a.681.681 0 0 0-.548-.335h-.245a.681.681 0 0 0-.55.335l-3.428 6.667L3.37 7.446a.552.552 0 0 0-.491-.362H.461c-.31 0-.485.245-.39.543l3.95 12.39a.55.55 0 0 0 .492.36h.359a.681.681 0 0 0 .548-.335l4.047-7.867 4.048 7.867a.681.681 0 0 0 .548.336h.359a.55.55 0 0 0 .49-.36l3.951-12.39c.096-.3-.08-.544-.39-.544M24.13 7.084h-2.44a.567.567 0 0 0-.563.57V19.43c0 .315.252.57.563.57h2.44c.31 0 .562-.255.562-.57V7.654a.567.567 0 0 0-.563-.57M34.129 17.15c-1.02 0-1.96-.271-2.715-.73v-4.885c.586-.966 1.583-1.601 2.715-1.601 1.805 0 3.267 1.616 3.267 3.607 0 1.993-1.462 3.61-3.267 3.61m.663-10.445c-1.679 0-3.2.737-4.316 1.934V8.64l-.434-1.197a.58.58 0 0 0-.504-.358h-1.126a.566.566 0 0 0-.563.57v18.61c0 .316.251.57.563.57h2.44c.31 0 .562-.254.562-.57V19.81c1.034.366 2.176.569 3.378.569 3.42 0 6.192-3.06 6.192-6.837 0-3.775-2.773-6.835-6.192-6.835M49.981 6.706c-2.345 0-3.707 1.933-3.707 1.933l-.433-1.197a.58.58 0 0 0-.505-.358H44.21a.567.567 0 0 0-.563.57V19.43c0 .315.251.57.563.57h2.439c.31 0 .562-.255.562-.57v-8.244c1.424-1.747 3.238-1.149 3.609-1.004.37.144.646-.033.755-.283l.84-1.922c.195-.452-.088-1.27-2.435-1.27M23.419 1.02a1.966 1.966 0 0 0-2.412 1.41A1.996 1.996 0 0 0 22.4 4.87a1.967 1.967 0 0 0 2.412-1.41 1.996 1.996 0 0 0-1.393-2.44"/>
        <path fill="#666" d="M79.938 13.425c0-.765-.085-1.505-.255-2.22-.17-.714-.485-1.31-.944-1.786a3.233 3.233 0 0 0-.983-.663c-.382-.17-.829-.256-1.34-.256-.51 0-.956.086-1.339.256s-.71.391-.982.663c-.46.476-.775 1.072-.944 1.786a9.54 9.54 0 0 0-.256 2.22c0 .765.085 1.506.256 2.22.17.714.485 1.31.944 1.786.272.272.6.494.982.663.383.17.83.256 1.34.256.51 0 .957-.085 1.34-.256.382-.17.71-.39.982-.663.46-.476.774-1.072.944-1.786.17-.714.255-1.455.255-2.22m2.22 0c0 1.02-.128 1.982-.383 2.883a5.399 5.399 0 0 1-3.151 3.496c-.655.272-1.39.408-2.207.408s-1.553-.136-2.207-.408a5.393 5.393 0 0 1-3.152-3.496 10.545 10.545 0 0 1-.382-2.883c0-1.02.127-1.981.382-2.883a5.4 5.4 0 0 1 3.151-3.496c.655-.272 1.391-.408 2.208-.408.816 0 1.552.136 2.207.408.655.272 1.22.638 1.697 1.097.714.698 1.2 1.497 1.454 2.399.255.902.383 1.862.383 2.883M93.538 19.88v-8.19c0-.97-.217-1.726-.65-2.271-.434-.544-1.161-.817-2.182-.817-.63 0-1.183.183-1.659.55-.476.365-.859.846-1.148 1.44a4.602 4.602 0 0 0-.395 1.634 24.085 24.085 0 0 0-.064 1.658v5.997h-2.17V6.969h1.89l.178 1.94c.17-.374.4-.702.689-.983.289-.28.612-.514.97-.702a5.287 5.287 0 0 1 1.122-.433 4.444 4.444 0 0 1 1.123-.153c1.48 0 2.594.417 3.342 1.25.749.834 1.123 1.999 1.123 3.496v8.497h-2.169z"/>
        <g transform="translate(98.491 6.603)">
            <mask id="b" fill="#fff">
                <use xlink:href="#a"/>
            </mask>
            <path fill="#666" d="M9.26 5.673a5 5 0 0 0-.205-1.428 3.763 3.763 0 0 0-.587-1.2 2.957 2.957 0 0 0-1.046-.854c-.425-.213-.927-.32-1.505-.32-.596 0-1.11.111-1.544.332-.434.222-.8.51-1.097.868-.298.357-.52.761-.664 1.212a5.12 5.12 0 0 0-.242 1.39h6.89zm2.194 1.863H2.319c0 .596.11 1.187.332 1.774.22.586.527 1.076.918 1.467.613.612 1.404.918 2.373.918 1.055 0 1.854-.28 2.399-.842.187-.187.34-.382.46-.587.118-.204.22-.476.305-.816h2.118a4.413 4.413 0 0 1-.663 1.812 4.67 4.67 0 0 1-1.327 1.377c-.46.307-.97.545-1.531.715a6.041 6.041 0 0 1-1.76.255c-.92 0-1.74-.175-2.463-.523a5.35 5.35 0 0 1-1.825-1.416A6.152 6.152 0 0 1 .444 9.488a8.53 8.53 0 0 1-.396-2.615c0-.783.077-1.518.23-2.207.153-.69.408-1.331.765-1.927.46-.782 1.106-1.429 1.94-1.94C3.815.29 4.793.035 5.916.035c.833 0 1.577.15 2.232.447.655.298 1.22.702 1.697 1.212a5.98 5.98 0 0 1 1.212 2.054c.281.791.421 1.62.421 2.488l-.025 1.301z" mask="url(#b)"/>
        </g>
    </g>
</svg>
