<?xml version="1.0" encoding="UTF-8"?>
<svg width="180px" height="70px" viewBox="0 0 180 70" version="1.1" xmlns="http://www.w3.org/2000/svg" xmlns:xlink="http://www.w3.org/1999/xlink">
    <!-- Generator: Sketch 51.3 (57544) - http://www.bohemiancoding.com/sketch -->
    <title>Logo Artboard</title>
    <desc>Created with Sketch.</desc>
    <defs>
        <polygon id="path-1" points="0.0465315712 0.0333627019 11.131395 0.0333627019 11.131395 13.1967107 0.0465315712 13.1967107"></polygon>
        <polygon id="path-3" points="0 0.0258443465 30.0733862 0.0258443465 30.0733862 29.6293686 0 29.6293686"></polygon>
        <polygon id="path-5" points="3.03983533e-05 0.0258443465 30.0757239 0.0258443465 30.0757239 29.6293333 3.03983533e-05 29.6293333"></polygon>
        <polygon id="path-7" points="0 0.0258443465 30.0757165 0.0258443465 30.0757165 20.7223142 0 20.7223142"></polygon>
    </defs>
    <g id="Logo-Artboard" stroke="none" stroke-width="1" fill="none" fill-rule="evenodd">
        <g id="Group-33" transform="translate(10.000000, 17.000000)">
            <path d="M111.226197,21.478837 C109.419912,21.478837 107.951131,19.9090279 107.951131,17.9792775 C107.951131,16.0505844 109.419912,14.4810103 111.226197,14.4810103 C113.032012,14.4810103 114.50091,16.0505844 114.50091,17.9792775 C114.50091,19.9090279 113.032012,21.478837 111.226197,21.478837 M111.226197,11.351025 C107.709369,11.351025 104.857093,14.3187783 104.857093,17.9792775 C104.857093,21.6408341 107.709369,24.6088223 111.226197,24.6088223 C114.742555,24.6088223 117.594244,21.6408341 117.594244,17.9792775 C117.594244,14.3187783 114.742555,11.351025 111.226197,11.351025" id="Fill-1" fill="#000000"></path>
            <path d="M71.2470837,11.7182614 L68.902649,11.7182614 C68.7021204,11.7182614 68.4886696,11.8762643 68.4269956,12.0688047 L66.4905492,18.1414038 L63.1644993,11.676558 C63.0721645,11.4978796 62.8325169,11.3510367 62.6325756,11.3510367 L62.3951601,11.3510367 C62.1946314,11.3510367 61.9549838,11.4978796 61.862649,11.676558 L58.5374214,18.1414038 L56.600975,12.0688047 C56.539301,11.8762643 56.3250279,11.7182614 56.1250866,11.7182614 L53.7800646,11.7182614 C53.4802702,11.7182614 53.3099325,11.9550896 53.4022673,12.2447812 L57.2333392,24.2597004 C57.2948957,24.4522408 57.5091689,24.6087166 57.7091101,24.6087166 L58.0575389,24.6087166 C58.2573627,24.6087166 58.4970103,24.4618737 58.5893451,24.2831953 L62.5135742,16.654649 L66.4385081,24.2831953 C66.5309604,24.4618737 66.7704905,24.6087166 66.9704317,24.6087166 L67.3180382,24.6087166 C67.5185668,24.6087166 67.7322526,24.4522408 67.7938091,24.2597004 L71.6248811,12.2447812 C71.7173333,11.9550896 71.547583,11.7182614 71.2470837,11.7182614" id="Fill-3" fill="#000000"></path>
            <path d="M76.731207,11.7182614 L74.365627,11.7182614 C74.0644229,11.7182614 73.8200764,11.9662496 73.8200764,12.270978 L73.8200764,23.6886579 C73.8200764,23.9937386 74.0644229,24.2414919 74.365627,24.2414919 L76.731207,24.2414919 C77.0324112,24.2414919 77.2774626,23.9937386 77.2774626,23.6886579 L77.2774626,12.270978 C77.2774626,11.9662496 77.0324112,11.7182614 76.731207,11.7182614" id="Fill-5" fill="#000000"></path>
            <path d="M86.4278767,21.478837 C85.438743,21.478837 84.5277298,21.215812 83.7952775,20.7709369 L83.7952775,16.0340206 C84.3633833,15.0975154 85.3299618,14.4810103 86.4278767,14.4810103 C88.1780088,14.4810103 89.596511,16.048 89.596511,17.9792775 C89.596511,19.9120822 88.1780088,21.478837 86.4278767,21.478837 M87.0705786,11.351025 C85.4429721,11.351025 83.9678473,12.0659736 82.8862614,13.2270896 L82.8855565,13.2256799 L82.4647636,12.0645639 C82.3961586,11.8748429 82.1757768,11.7182496 81.9758355,11.7182496 L80.8842643,11.7182496 C80.5822379,11.7182496 80.3387137,11.9661204 80.3387137,12.2709662 L80.3387137,30.3170162 C80.3387137,30.6231542 80.5822379,30.8698502 80.8842643,30.8698502 L83.2496094,30.8698502 C83.5510485,30.8698502 83.7952775,30.6231542 83.7952775,30.3170162 L83.7952775,24.0572805 C84.7980382,24.4119354 85.9055859,24.6088223 87.0705786,24.6088223 C90.3868781,24.6088223 93.0749251,21.6408341 93.0749251,17.9792775 C93.0749251,14.3187783 90.3868781,11.351025 87.0705786,11.351025" id="Fill-7" fill="#000000"></path>
            <path d="M101.800153,11.3510367 C99.5256153,11.3510367 98.2050866,13.2256916 98.2050866,13.2256916 L97.7848811,12.0645756 C97.7156887,11.8747372 97.4953069,11.7182614 97.2953656,11.7182614 L96.2043818,11.7182614 C95.9024728,11.7182614 95.6582438,11.9662496 95.6582438,12.270978 L95.6582438,23.6886579 C95.6582438,23.9937386 95.9024728,24.2414919 96.2043818,24.2414919 L98.569257,24.2414919 C98.8705786,24.2414919 99.1148076,23.9937386 99.1148076,23.6886579 L99.1148076,15.694649 C100.495601,14.0001997 102.254543,14.5805228 102.614132,14.7205521 C102.973251,14.860464 103.241093,14.6885991 103.346349,14.4462496 C103.451959,14.2053098 103.969316,13.0205815 104.160329,12.5826373 C104.35052,12.144928 104.075278,11.3510367 101.800153,11.3510367" id="Fill-9" fill="#000000"></path>
            <path d="M76.0426432,5.83812041 C75.0242584,5.56123348 73.9761527,6.17350954 73.7037298,7.20446402 C73.4306021,8.23659325 74.0357122,9.29491924 75.0542144,9.57215859 C76.0728341,9.849163 77.12,9.23676946 77.3938326,8.20464023 C77.6662555,7.17368576 77.0618502,6.11406755 76.0426432,5.83812041" id="Fill-11" fill="#000000"></path>
            <path d="M130.848999,17.8667254 C130.848999,17.1244053 130.766297,16.4068722 130.601598,15.7141263 C130.436429,15.0211454 130.131465,14.4439941 129.68612,13.9820852 C129.422038,13.7183554 129.104505,13.5037298 128.733404,13.3386784 C128.362302,13.1740969 127.929292,13.0912775 127.43449,13.0912775 C126.939571,13.0912775 126.506561,13.1740969 126.13546,13.3386784 C125.764241,13.5037298 125.446473,13.7183554 125.18286,13.9820852 C124.737515,14.4439941 124.431965,15.0211454 124.267383,15.7141263 C124.102214,16.4068722 124.019865,17.1244053 124.019865,17.8667254 C124.019865,18.608928 124.102214,19.3265786 124.267383,20.0193245 C124.431965,20.712188 124.737515,21.2898091 125.18286,21.7513656 C125.446473,22.0153304 125.764241,22.2300734 126.13546,22.3946549 C126.506561,22.5597063 126.939571,22.6420558 127.43449,22.6420558 C127.929292,22.6420558 128.362302,22.5597063 128.733404,22.3946549 C129.104505,22.2300734 129.422038,22.0153304 129.68612,21.7513656 C130.131465,21.2898091 130.436429,20.712188 130.601598,20.0193245 C130.766297,19.3265786 130.848999,18.608928 130.848999,17.8667254 M133.001598,17.8667254 C133.001598,18.8564464 132.877897,19.7884875 132.630496,20.6627313 C132.383095,21.53721 131.912963,22.3124229 131.2201,22.988605 C130.758191,23.4339501 130.209586,23.7888399 129.574637,24.0524523 C128.939454,24.3160646 128.226267,24.4483407 127.43449,24.4483407 C126.642596,24.4483407 125.92894,24.3160646 125.294226,24.0524523 C124.659043,23.7888399 124.110438,23.4339501 123.648764,22.988605 C122.956018,22.3124229 122.485885,21.53721 122.238367,20.6627313 C121.990966,19.7884875 121.867266,18.8564464 121.867266,17.8667254 C121.867266,16.8770044 121.990966,15.9453157 122.238367,15.0707195 C122.485885,14.1965932 122.956018,13.4213803 123.648764,12.7448458 C124.110438,12.2995007 124.659043,11.9449633 125.294226,11.6809985 C125.92894,11.4172687 126.642596,11.2851101 127.43449,11.2851101 C128.226267,11.2851101 128.939454,11.4172687 129.574637,11.6809985 C130.209586,11.9449633 130.758191,12.2995007 131.2201,12.7448458 C131.912963,13.4213803 132.383095,14.1965932 132.630496,15.0707195 C132.877897,15.9453157 133.001598,16.8770044 133.001598,17.8667254" id="Fill-13" fill="#666666"></path>
            <path d="M144.037087,24.1267078 L144.037087,16.1841527 C144.037087,15.2440059 143.826808,14.5101439 143.406132,13.9820969 C142.985457,13.4542849 142.280376,13.1902026 141.290537,13.1902026 C140.680141,13.1902026 140.143871,13.3677063 139.682314,13.7222438 C139.220288,14.0771336 138.849186,14.5430367 138.568775,15.120188 C138.354267,15.5822144 138.226338,16.109909 138.185339,16.7037416 C138.143988,17.2975742 138.12343,17.8338443 138.12343,18.3120822 L138.12343,24.1267078 L136.020288,24.1267078 L136.020288,11.6067665 L137.85136,11.6067665 L138.024399,13.4871777 C138.189216,13.1245345 138.41183,12.8067665 138.692593,12.5345786 C138.972887,12.2623906 139.286426,12.0357827 139.632858,11.8540499 C139.979172,11.6727871 140.341815,11.5324053 140.721492,11.4334919 C141.100816,11.3344611 141.463812,11.2851219 141.810244,11.2851219 C143.24531,11.2851219 144.325486,11.6894684 145.051595,12.4974567 C145.777233,13.3059148 146.140229,14.4359001 146.140229,15.8871777 L146.140229,24.1267078 L144.037087,24.1267078 Z" id="Fill-15" fill="#666666"></path>
            <g id="Group-19" transform="translate(148.839941, 11.251689)">
                <mask id="mask-2" fill="white">
                    <use xlink:href="#path-1"></use>
                </mask>
                <g id="Clip-18"></g>
                <path d="M8.97880764,5.50155653 C8.97880764,5.02331865 8.91278708,4.56129222 8.78074596,4.11594714 C8.64858737,3.67060206 8.4592188,3.28317181 8.21181791,2.95306902 C7.94773568,2.60651982 7.60940969,2.33057269 7.19730984,2.12417034 C6.78474009,1.91800294 6.29804405,1.8148605 5.73745668,1.8148605 C5.15983554,1.8148605 4.66115712,1.92234949 4.24048164,2.13650514 C3.81980617,2.35113069 3.4649163,2.6313069 3.17651689,2.97785609 C2.88764758,3.32417034 2.6731395,3.71618209 2.53322761,4.15306902 C2.39284581,4.59030837 2.31449046,5.03988253 2.29816153,5.50155653 L8.97880764,5.50155653 Z M11.1066197,7.30784141 L2.24870485,7.30784141 C2.24870485,7.88546256 2.35572394,8.45838473 2.57034949,9.02754772 C2.78450514,9.59647577 3.08148018,10.070837 3.46103965,10.4501615 C4.05487225,11.0441116 4.82186197,11.3409692 5.76212628,11.3409692 C6.78474009,11.3409692 7.55995301,11.0687812 8.088,10.5244053 C8.26938032,10.3431424 8.41786784,10.153304 8.53346256,9.95535977 C8.64858737,9.75741557 8.74761821,9.49368576 8.83032012,9.16358297 L10.8840059,9.16358297 C10.801304,9.79066079 10.5870308,10.3759178 10.2407166,10.9202937 C9.89428488,11.4646696 9.46515125,11.9100147 8.95402056,12.2564464 C8.50867548,12.553304 8.01375624,12.7844934 7.46938032,12.9491924 C6.92512188,13.1140088 6.35607636,13.1967107 5.76212628,13.1967107 C4.87143612,13.1967107 4.07543025,13.0273128 3.37446109,12.6894567 C2.6731395,12.3516006 2.08365345,11.8938032 1.60529809,11.3161821 C1.0772511,10.706138 0.685591777,10.0009398 0.430085169,9.20058737 C0.174108664,8.40082232 0.0465315712,7.55524229 0.0465315712,6.66443465 C0.0465315712,5.90590308 0.12077533,5.1922467 0.269145374,4.52428781 C0.417632893,3.85609398 0.665033774,3.23371512 1.01158297,2.65609398 C1.45692805,1.89756241 2.08365345,1.27048458 2.89199413,0.775682819 C3.69998238,0.280763583 4.64882232,0.0333627019 5.73745668,0.0333627019 C6.54544493,0.0333627019 7.26732452,0.177973568 7.90250808,0.466372981 C8.53722173,0.755124816 9.08582673,1.14678414 9.54797063,1.64170338 C10.0589838,2.20264317 10.4509956,2.86637298 10.7231836,3.63348018 C10.9953715,4.4004699 11.1314068,5.20469897 11.1314068,6.04593245 L11.1066197,7.30784141 Z" id="Fill-17" fill="#666666" mask="url(#mask-2)"></path>
            </g>
            <g id="Group-22" transform="translate(0.000000, 0.091630)">
                <mask id="mask-4" fill="white">
                    <use xlink:href="#path-3"></use>
                </mask>
                <g id="Clip-21"></g>
                <path d="M17.9603759,9.32428781 C17.0035477,8.77356828 15.9189075,8.48399413 14.8017269,8.48399413 C11.303812,8.48399413 8.45811454,11.3296916 8.45811454,14.8276065 C8.45811454,18.3254038 11.303812,21.1712188 14.8017269,21.1712188 C16.865163,21.1712188 18.8072482,20.1611747 19.996793,18.4695448 C21.3402291,16.5589427 23.9783495,16.0991483 25.8888341,17.4428194 C27.7994361,18.786373 28.2591131,21.4242584 26.9155595,23.3348605 C24.1439883,27.2761233 19.6154714,29.6293686 14.8017269,29.6293686 C6.64008223,29.6293686 -3.52422908e-05,22.9892511 -3.52422908e-05,14.8276065 C-3.52422908e-05,6.66584435 6.64008223,0.0258443465 14.8017269,0.0258443465 C17.6856035,0.0258443465 20.4819618,0.856740088 22.8885404,2.4287812 L23.2288634,2.65104258 L30.0733862,9.30631424" id="Fill-20" fill="#24A2D9" mask="url(#mask-4)"></path>
            </g>
            <path d="M17.1512482,20.8102438 C18.2820558,20.3585551 19.2771806,19.5846344 19.9968282,18.5610808 C21.3402643,16.6505962 23.9783847,16.1908018 25.8888693,17.5344728 C27.7994714,18.8780264 28.2591483,21.5159119 26.9155947,23.426514 C24.6006461,26.7184963 21.0599706,28.9024611 17.1512482,29.5327107" id="Fill-23" fill="#0F4157"></path>
            <g id="Group-27" transform="translate(17.151248, 0.091630)">
                <mask id="mask-6" fill="white">
                    <use xlink:href="#path-5"></use>
                </mask>
                <g id="Clip-26"></g>
                <path d="M15.2739618,0.0258091043 C23.4357239,0.0258091043 30.0757239,6.6658091 30.0757239,14.8275712 C30.0757239,22.9893333 23.4357239,29.6293333 15.2739618,29.6293333 C12.3902026,29.6293333 9.59372687,28.7984376 7.18714831,27.2263965 L6.84694273,27.0040176 L0.00230249633,20.3488634 C0.0101732746,20.3677768 -0.00556828194,8.46492805 0.00230249633,8.48395888 L12.1153128,20.3308899 C13.072141,20.8816094 14.1567812,21.1711836 15.2739618,21.1711836 C18.7718767,21.1711836 21.6175742,18.325486 21.6175742,14.8275712 C21.6175742,11.3297739 18.7718767,8.48395888 15.2739618,8.48395888 C13.2105257,8.48395888 11.2684405,9.49388546 10.0788957,11.1855154 C8.73545962,13.0961175 6.09733921,13.5559119 4.18685463,12.2122408 C2.27625257,10.8688047 1.81657562,8.23080176 3.16012922,6.32019971 C5.93170044,2.37881938 10.4602173,0.0258091043 15.2739618,0.0258091043" id="Fill-25" fill="#73BC52" mask="url(#mask-6)"></path>
            </g>
            <polygon id="Fill-28" fill="#2E4B21" points="29.2511013 20.4404934 17.1537151 13.2745609 17.1512482 8.57558884 28.8986784 19.0308018"></polygon>
            <g id="Group-32" transform="translate(0.000000, 0.091630)">
                <mask id="mask-8" fill="white">
                    <use xlink:href="#path-7"></use>
                </mask>
                <g id="Clip-31"></g>
                <path d="M0,14.8275712 C0,6.6658091 6.64,0.0258091043 14.8017621,0.0258091043 C17.6855213,0.0258091043 20.4819971,0.856704846 22.8885756,2.42874596 L23.2287812,2.65112482 L30.0734214,9.306279 C30.066373,9.28948018 30.0780029,18.5562056 30.075301,20.7223142 C30.075301,20.7223142 29.3876065,20.4127695 29.1699266,20.2875419 C28.6637298,19.9964405 17.9604112,9.32425257 17.9604112,9.32425257 C17.003583,8.77353304 15.9189427,8.48395888 14.8017621,8.48395888 C11.3038473,8.48395888 8.45814978,11.3297739 8.45814978,14.8275712 L0,14.8275712 Z" id="Fill-30" fill="#24A2D9" mask="url(#mask-8)"></path>
            </g>
        </g>
    </g>
</svg>